<svg xmlns="http://www.w3.org/2000/svg" fill="none" viewBox="0 0 4000 4000"><path fill="#162e2b" d="M1090.41 1381.1c234.04 46.11 397.95 125.8 427.01 356.5.29 2.3-.25 4.68-1.52 6.63l-209.83 321.37c-1.95 2.99-5.54 4.69-9.11 4.43-649.973-48.47-666.535-648.57-587.693-975.6 2.373-9.84 17.191-10.05 21.019-.68 44.689 109.39 173.889 250.66 360.124 287.35ZM2910.78 1381.1c-234.03 46.11-397.95 125.8-427.01 356.5-.29 2.3.25 4.68 1.52 6.63l209.83 321.37c1.96 2.99 5.54 4.69 9.11 4.43 649.97-48.47 666.54-648.57 587.69-975.6-2.37-9.84-17.19-10.05-21.02-.68-44.68 109.39-173.88 250.66-360.12 287.35Z"/><path fill="#4FA9A3" fill-rule="evenodd" d="m677.737 1316.34 75.217 37.29c-26.233-70.96-43.602-149.77-48.811-236.93 1.657-7.55 3.367-14.98 5.124-22.27 2.373-9.84 17.191-10.05 21.019-.68a330.34 330.34 0 0 0 5.458 12.6c4.235 84.43 20.254 160.74 44.912 229.46l31.555-115.56a531.777 531.777 0 0 0 25.958 26.87l-37.73 138.18c30.574 69.17 70.052 129.9 114.643 182.81l50.446-230.13a495.75 495.75 0 0 0 29.844 13.86l-53.931 246.03c23.937 25.74 49.039 49.43 74.789 71.16 36.33 30.67 73.9 57.39 111.23 80.41l49.8-348.59c10.59 2.8 20.99 5.71 31.2 8.76l-51.08 357.54c108.87 61.79 212.28 92.29 272.95 97.67 2.07.18 4.02.75 5.77 1.63l-19.1 29.25c-67.01-8.19-170.97-40.73-278.98-102.62l-315.048 57.18a553.292 553.292 0 0 1-21.752-28.7l295.35-53.6c-34.04-21.79-68.07-46.54-101.061-74.39-26.556-22.41-52.468-46.86-77.202-73.42H707.986a790.225 790.225 0 0 1-8.146-32.12h190.038c-46.126-54.87-87.01-117.85-118.725-189.53l-94.571-46.88c.206-11.84.596-23.6 1.155-35.28ZM3188.98 1220.25l31.55 115.56c24.66-68.72 40.68-145.03 44.91-229.46 1.94-4.24 3.76-8.44 5.46-12.6 3.83-9.37 18.65-9.16 21.02.68 1.76 7.29 3.47 14.71 5.12 22.27-5.21 87.16-22.57 165.97-48.81 236.93l75.22-37.29c.56 11.68.95 23.44 1.15 35.28l-94.57 46.88c-31.71 71.68-72.6 134.66-118.72 189.53h190.04c-2.5 10.76-5.21 21.47-8.15 32.12h-210.32c-24.73 26.56-50.65 51.01-77.2 73.42-33 27.85-67.02 52.6-101.06 74.39l295.35 53.6a550.647 550.647 0 0 1-21.76 28.7l-315.04-57.18c-108.01 61.89-211.97 94.43-278.98 102.62l-19.1-29.25c1.75-.88 3.69-1.45 5.76-1.63 60.68-5.38 164.09-35.88 272.96-97.67l-51.08-357.54c10.2-3.05 20.6-5.96 31.2-8.76l49.79 348.59c37.34-23.02 74.91-49.74 111.24-80.41 25.75-21.73 50.85-45.42 74.79-71.16l-53.94-246.03c10.19-4.32 20.14-8.96 29.85-13.86l50.44 230.13c44.6-52.91 84.07-113.64 114.65-182.81l-37.73-138.18c9.11-8.79 17.77-17.77 25.96-26.87Z" clip-rule="evenodd"/><path fill="#ff4ffb" d="M1288.7 2316.3c-64.86 17.29-142.67 128.92-42.01 230.4 12 12.09 26.24 22.51 42.01 31.43l103.18-163.62-103.18-98.21ZM2710.14 2316.35c64.85 17.29 142.66 128.92 42 230.4-9.95 10.03-21.44 18.91-34.06 26.73L2572.3 2347.8l137.84-31.45Z"/><path fill="#080c0d" d="M2737.82 2130.37c0 407.67-330.48 738.15-738.15 738.15-407.67 0-738.15-330.48-738.15-738.15 0-407.67 330.48-738.15 738.15-738.15 407.67 0 738.15 330.48 738.15 738.15Z"/><path fill="#7e3a8a" fill-rule="evenodd" d="M2660.72 2459.18c49.34-99.01 77.1-210.67 77.1-328.81 0-16.8-.56-33.46-1.67-49.98-30.7-12.37-53.74-1.51-76.78 17.24-26.56 21.62-71.65 2.47-79.68-27.8-8.03-30.27-43.86-41.38-48.8 8.65-1.43 14.43-.95 25.57-.54 35.08 1 23.48 1.58 37.03-27.87 65.61-11.99 11.62-22.06 20.14-30.51 27.3-20.73 17.54-31.74 26.85-37.44 53.62-8.03 37.68 24.71 46.32 51.27 15.44 26.56-30.89 55.59 3.7 30.88 37.06-24.71 33.36-5.56 61.77 63.01 75.36 40.15 7.96 66.64 42.22 81.03 71.23Zm-878.14 376.9c9.78-24.33 17.28-58 2.75-79.98-10.35-15.66-23.55-16.15-37.25-16.67-18.18-.68-37.25-1.4-51.7-37.69-11.01-27.66.86-78.92 14.1-136.04 17.21-74.25 36.71-158.42 11.22-213.58-36.77-79.59-64.09-66.34-97.04-50.37-7.46 3.62-15.2 7.37-23.41 10.22-19.22 6.67-38.43-2.23-55.76-10.25-22.76-10.54-42.26-19.57-54.19 10.25-21 52.5-63 90.8-70.41 48.8-7.42-42-29.04-51.89-40.15-15.44-.19.61-.38 1.22-.56 1.83-.15.5-.31 1-.46 1.5l-.01.05c-9.35 30.84-17.42 57.43-63.06 62.07 83.35 202.8 254.39 360.3 465.93 425.3Zm741.14-1225.55c105.23 106.08 178.48 243.94 204.07 397.9-25.19 36.85-89.63 6.58-117.84-23.22-27.47-29.03-49.73-13.68-78.09 5.88-5.43 3.75-11.08 7.64-17.03 11.42-37.06 23.47-55.59-11.74-43.86-35.83 11.74-24.09 0-51.27-41.38-60.54-16.11-3.6-31.66 1.22-44.65 5.24-20.37 6.31-34.42 10.66-34.42-22.53 0-40.46 18.48-65.52 34.81-87.66 5.61-7.61 10.96-14.87 15.23-22.29 7.93-13.82 6.22-26.79 4.7-38.26-1.67-12.64-3.1-23.45 8.88-31.54 8.46-5.71 18.43-2.89 27.64-.28 15.7 4.44 29.19 8.25 29.19-31.84 0-52.4 14.25-69.61 52.75-66.45Zm-1243.49 685.69c16.55-9.05 36.16-25.31 41.21-49.11 8.64-40.76 49.41-38.29 91.42 0 42 38.3 56.21-38.29 35.2-81.53-21-43.24-17.29-100.07 54.98-63.01 60.94 31.25 70.05 5.41 81.41-26.79 2.12-5.99 4.31-12.2 6.92-18.3 6.56-15.31 15.32-20.96 22.94-25.88 11.73-7.57 20.73-13.38 14.74-50.1-9.88-60.53 22.85-81.53 74.74-83.39 51.89-1.85 89.57-51.88 11.12-63-53.98-7.65-54.44-17.93-55.71-46.55-.58-12.97-1.32-29.7-7.3-51.66-10.21-37.59-43.31-31.54-71.1-26.45-24.29 4.44-44.53 8.14-41.93-18.65 4.8-49.67-2.86-83.63-67.7-76.75-129.73 133.02-209.65 314.84-209.65 515.32 0 57.02 6.47 112.54 18.71 165.85Z" clip-rule="evenodd"/><path fill="#812aa3" fill-rule="evenodd" d="M1934.22 2777.1c393 0 711.59-318.59 711.59-711.59 0-256.9-136.14-482.01-340.22-607.11-93.2-42.5-196.8-66.18-305.92-66.18-407.67 0-738.15 330.48-738.15 738.15 0 111.51 24.73 217.24 68.99 312.01 125.76 201.02 349.12 334.72 603.71 334.72Z" clip-rule="evenodd"/><path fill="#3B3B3B" fill-rule="evenodd" d="M2148.94 2090.34c8.12 2.62 12.58 11.32 9.97 19.43-23.01 71.48-90.4 104.35-155.94 103.6-65.39-.75-133.73-34.89-160.36-102.68-3.12-7.94.79-16.9 8.73-20.02 7.93-3.12 16.9.79 20.01 8.73 20.94 53.27 75.83 82.45 131.97 83.09 55.99.64 108.43-27.03 126.19-82.18 2.62-8.12 11.32-12.58 19.43-9.97Z" clip-rule="evenodd"/><path fill="#e361ee" fill-rule="evenodd" d="M1788.69 2762.2a44.21 44.21 0 0 0-3.36-6.1c-10.35-15.66-23.55-16.15-37.25-16.67-18.18-.68-37.25-1.4-51.7-37.69-11.01-27.66.86-78.92 14.1-136.04 17.21-74.25 36.71-158.42 11.22-213.58-36.77-79.59-64.09-66.34-97.04-50.37-7.46 3.62-15.2 7.37-23.41 10.22-19.22 6.67-38.43-2.23-55.76-10.25-22.76-10.54-42.26-19.57-54.19 10.25-21 52.5-63 90.8-70.41 48.8-7.42-42.01-29.04-51.89-40.15-15.44-.19.61-.38 1.22-.56 1.83-.15.5-.31 1-.46 1.5l-.01.05c-9.35 30.84-17.42 57.43-63.06 62.07 4.38 10.66 9 21.2 13.86 31.6 101.12 161.64 265.35 279.75 458.18 319.82Zm-508.46-465.98c16.55-9.05 36.16-25.31 41.21-49.11 8.64-40.76 49.41-38.29 91.42 0 42 38.3 56.21-38.29 35.2-81.53-21-43.24-17.29-100.07 54.98-63.01 60.94 31.25 70.05 5.41 81.41-26.79 2.12-5.99 4.31-12.2 6.92-18.3 6.56-15.31 15.32-20.96 22.94-25.88 11.73-7.57 20.73-13.38 14.74-50.1-9.88-60.53 22.85-81.53 74.74-83.39 51.89-1.85 89.57-51.88 11.12-63-53.98-7.65-54.44-17.94-55.71-46.55-.58-12.97-1.32-29.7-7.3-51.67-10.21-37.58-43.31-31.53-71.1-26.44-24.29 4.44-44.53 8.14-41.93-18.65 4.8-49.67-2.86-83.63-67.7-76.75-129.73 133.02-209.65 314.84-209.65 515.32 0 55.75 6.18 110.06 17.9 162.28.26 1.19.53 2.38.81 3.57Zm1364.49-191.02c-5.53 100.52-31.91 195.47-74.9 280.61-60.49-14.29-76.62-41.53-53.14-73.22 24.71-33.36-4.32-67.95-30.88-37.06-26.56 30.88-59.3 22.23-51.27-15.45 5.7-26.76 16.71-36.07 37.44-53.62 8.45-7.15 18.52-15.67 30.51-27.29 29.45-28.58 28.87-42.13 27.87-65.61-.41-9.51-.89-20.65.54-35.08 4.94-50.03 40.77-38.92 48.8-8.65 6.68 25.2 39.05 42.69 65.03 35.37Zm-157.09-487.04c88.16 108.92 144.81 244.38 156.1 392.53-13.2-7.26-25.17-16.39-33.78-25.48-27.47-29.03-49.73-13.68-78.09 5.88-5.43 3.75-11.08 7.64-17.03 11.41-37.06 23.48-55.59-11.73-43.86-35.82 11.74-24.09 0-51.27-41.38-60.54-16.11-3.6-31.66 1.22-44.65 5.24-20.37 6.31-34.42 10.66-34.42-22.53 0-40.46 18.48-65.52 34.81-87.66 5.61-7.61 10.96-14.87 15.23-22.29 7.93-13.82 6.22-26.79 4.7-38.26-1.67-12.64-3.1-23.45 8.88-31.54 8.46-5.71 18.43-2.89 27.64-.29 15.7 4.45 29.19 8.26 29.19-31.83 0-30.68 4.89-49.3 16.66-58.82Z" clip-rule="evenodd"/><path fill="#3B3B3B" fill-rule="evenodd" d="M1823.34 1872.72c7.88 3.26 11.63 12.29 8.38 20.17-27.84 67.42-82.48 104.73-142.5 120.68-59.61 15.84-125.21 10.9-177.99-6.26-8.11-2.64-12.54-11.35-9.91-19.46 2.64-8.11 11.35-12.55 19.46-9.91 47.91 15.57 107.4 19.9 160.51 5.78 52.72-14.01 98.45-45.88 121.88-102.62 3.26-7.88 12.29-11.63 20.17-8.38ZM2176.61 1872.72c-7.88 3.26-11.63 12.29-8.38 20.17 27.84 67.42 82.49 104.73 142.5 120.68 59.61 15.84 125.21 10.9 177.99-6.26 8.11-2.64 12.55-11.35 9.91-19.46-2.64-8.11-11.35-12.55-19.46-9.91-47.91 15.57-107.39 19.9-160.51 5.78-52.72-14.01-98.45-45.88-121.88-102.62-3.25-7.88-12.28-11.63-20.17-8.38Z" clip-rule="evenodd"/><path fill="#ff4ffb" d="M1550.6 2499.75c-119.21 0-192.1-28.41-228.55-75.36l-75.35 122.31c75.35 75.97 239.05 85.65 316.26 75.97l-12.36-122.92Z"/><path fill="#B32626" fill-rule="evenodd" d="M1800.44 1664.22c1.93 10.05-4.66 19.76-14.71 21.69-91.09 17.46-182.12 77.59-215.93 105.44-7.9 6.51-19.58 5.38-26.09-2.53-6.5-7.9-5.37-19.57 2.53-26.08 36.18-29.8 132.86-94.12 232.51-113.23 10.05-1.92 19.76 4.66 21.69 14.71ZM2199.52 1664.22c-1.93 10.05 4.66 19.76 14.71 21.69 91.09 17.46 182.11 77.59 215.93 105.44 7.9 6.51 19.58 5.38 26.09-2.53 6.5-7.9 5.37-19.57-2.53-26.08-36.19-29.8-132.86-94.12-232.51-113.23-10.06-1.92-19.77 4.66-21.69 14.71Z" clip-rule="evenodd"/><path fill="#ff4ffb" d="M2448.23 2499.81c119.21 0 192.1-28.42 228.55-75.36l75.36 122.3c-75.36 75.98-239.05 85.65-316.27 75.98l12.36-122.92Z"/><path fill="#EDEDED" d="M1520.34 2571.41c-10.61-109.39 55.59-132.19 93.89-108.1l20.38 185.93c-36.44 37.06-104.39 24.09-114.27-77.83ZM2478.5 2571.46c10.61-109.38-55.59-132.19-93.89-108.1l-20.38 185.93c36.44 37.06 104.39 24.09 114.27-77.83Z"/><path fill="#460e52" d="M1746.41 2314.44c-76.59 11.12-130.95 71.04-148.24 175.43-5.94 35.83 2.47 105.62 17.29 138.36 33.58 74.15 95.74 54.36 130.95 35.21 19.56 16.47 70.08 44.07 117.98 38.92 57.45-6.18 50.04-49.65 5.56-58.69-39.53-8.03-83.39-36.43-83.39-91.41 0-54.99 56.53-106.54 111.19-69.8 37.68 25.32 53.96-19.85 37.68-49.42-30.27-54.98-95.13-58.47-125.39-51.89 53.74-11.69 33.35-51.27 2.47-48.79 0-16.68-27.8-23.48-66.1-17.92ZM2252.42 2314.49c76.59 11.12 130.95 71.04 148.25 175.43 5.93 35.83-2.48 105.63-17.3 138.37-33.58 74.14-95.74 54.35-130.95 35.21-19.56 16.47-70.08 44.06-117.98 38.91-57.45-6.18-50.03-49.65-5.56-58.68 39.53-8.03 83.39-36.43 83.39-91.42s-56.53-106.54-111.19-69.8c-37.68 25.32-53.95-19.85-37.68-49.42 30.27-54.97 95.13-58.47 125.39-51.88-53.73-11.7-33.35-51.27-2.47-48.8 0-16.68 27.8-23.47 66.1-17.92Z"/><path fill="#838383" fill-rule="evenodd" d="M1817.43 2331.87a5.558 5.558 0 0 1-5.05 6.02c-74.46 6.61-105.54 47.3-112.44 59.05a5.564 5.564 0 0 1-7.61 1.98c-2.65-1.55-3.53-4.96-1.98-7.61 8.34-14.2 42.32-57.51 121.05-64.49a5.561 5.561 0 0 1 6.03 5.05Zm363.98.05a5.561 5.561 0 0 1 6.03-5.05c78.73 6.99 112.71 50.3 121.05 64.49 1.55 2.65.67 6.06-1.98 7.61a5.553 5.553 0 0 1-7.61-1.98c-6.9-11.74-37.98-52.44-112.44-59.04a5.561 5.561 0 0 1-5.05-6.03Zm-354.25 44.16c.76 2.97-1.04 6-4.01 6.76-16.22 4.12-32.42 12.3-45.54 21.08-13.31 8.91-22.63 17.92-25.78 23.29a5.566 5.566 0 0 1-7.61 1.98 5.555 5.555 0 0 1-1.98-7.61c4.46-7.6 15.52-17.75 29.19-26.9 13.86-9.28 31.22-18.1 48.97-22.62 2.98-.76 6 1.04 6.76 4.02Zm344.52.05c.75-2.98 3.78-4.77 6.76-4.02 17.75 4.52 35.11 13.34 48.97 22.62 13.66 9.16 24.73 19.3 29.19 26.9 1.55 2.65.67 6.06-1.98 7.61a5.555 5.555 0 0 1-7.61-1.98c-3.15-5.37-12.48-14.37-25.79-23.29-13.11-8.78-29.31-16.95-45.53-21.08a5.558 5.558 0 0 1-4.01-6.76Z" clip-rule="evenodd"/><path fill="#460e52" d="M2000.33 2667.99c173.52-133.92 30.87-183.68 0-116.97-35.23-71.04-172.2-1.01 0 116.97Z"/><path fill="#ff55e4" d="M2000.15 2627.62c-70.48-53.71-10.6-76.02 0-43.21 13.85-35.41 69.93-4.11 0 43.21ZM526.481 1978.19c210.444-275.84-37.764-300.45-44.132-164.71-86.478-129.52-267.49 54.88 44.132 164.71ZM3474.55 1979.1c-210.44-275.84 37.76-300.45 44.13-164.71 86.48-129.53 267.49 54.87-44.13 164.71Z"/><path fill="#0f0917" fill-rule="evenodd" d="m486.927 2272.55 442.43-127.4c5.383-1.55 10.976 1.68 12.327 7.12l105.436 424.37c2.11 8.47-6.98 15.31-14.53 10.95l-113.112-65.31c-4.727-2.73-10.772-1.11-13.501 3.62l-179.979 311.73h705.412c5.46 0 9.89 4.43 9.89 9.88v338.5c0 5.46-4.43 9.89-9.89 9.89H635.659a9.89 9.89 0 0 1-7.751-3.76l-275.776-348.63a9.879 9.879 0 0 1-.808-11.07l271.347-470.11a9.884 9.884 0 0 0-3.618-13.5l-132.126-76.28Z" clip-rule="evenodd"/><path fill="#801370" fill-rule="evenodd" d="M1441.3 3186.01v-338.5c0-5.38-4.31-9.76-9.67-9.88H350.004c.054 2.1.772 4.16 2.129 5.88l275.776 348.63a9.888 9.888 0 0 0 7.751 3.76h795.75c5.46 0 9.89-4.43 9.89-9.89Z" clip-rule="evenodd"/><path fill="#0f0917" fill-rule="evenodd" d="M2895.62 2243.32a9.88 9.88 0 0 1 3.62-13.5l293.15-169.25c4.72-2.73 10.77-1.11 13.5 3.62l397.87 689.14a9.836 9.836 0 0 1 .63 8.59l-164.04 413.14a9.867 9.867 0 0 1-9.18 6.24l-568.75.06c-5.45 0-9.88 4.42-9.88 9.88v129.32c0 8.72-10.46 13.16-16.74 7.12L2521 3024.35c-4.03-3.89-4.03-10.35 0-14.23l314.8-303.51c6.28-6.05 16.74-1.6 16.74 7.12v130.61c0 5.46 4.43 9.89 9.89 9.89h385.9l-352.71-610.91Z" clip-rule="evenodd"/><path fill="#801370" fill-rule="evenodd" d="m2895.62 2243.32 352.71 610.9 187.99 325.62a9.824 9.824 0 0 0 4.03-4.78l164.04-413.14c1.11-2.81.88-5.96-.62-8.58l-.01-.01-397.87-689.15c-.01 0-.01-.01-.02-.02-2.73-4.71-8.77-6.32-13.49-3.59l-293.14 169.25a9.88 9.88 0 0 0-3.62 13.5Z" clip-rule="evenodd"/><path fill="#0f0917" fill-rule="evenodd" d="M1174.95 1011.84a9.88 9.88 0 0 0-3.62 13.5l153.81 266.4a9.88 9.88 0 0 0 13.5 3.62l656.58-379.078a9.875 9.875 0 0 1 9.88 0l468.78 270.648c4.72 2.73 6.34 8.77 3.61 13.5l-63.43 109.87c-4.36 7.55 2.48 16.64 10.94 14.53l424.38-105.44c5.43-1.35 8.66-6.94 7.11-12.32l-120.96-420.093c-2.41-8.377-13.7-9.756-18.06-2.207l-66.4 115.02c-2.73 4.727-8.78 6.347-13.5 3.617l-632.32-365.083a9.882 9.882 0 0 0-9.88-.001l-820.42 473.517Z" clip-rule="evenodd"/><path fill="#801370" fill-rule="evenodd" d="M2651.07 899.79a9.881 9.881 0 0 1-13.5 3.617l-632.32-365.083a9.882 9.882 0 0 0-9.88-.001l-322.58 186.185 327.38 188.921 473.71 273.501a9.88 9.88 0 0 1 3.62 13.5l-63.44 109.87c-4.36 7.55 2.48 16.64 10.94 14.53l424.38-105.44c5.44-1.35 8.66-6.94 7.11-12.32l-120.96-420.093c-2.41-8.377-13.69-9.756-18.05-2.207l-66.41 115.02Z" clip-rule="evenodd"/></svg>