<svg xmlns="http://www.w3.org/2000/svg" xmlns:xlink="http://www.w3.org/1999/xlink" viewBox="0 0 600 400"><path fill="#D3F992" d="M341.025,209.945l6.898-6.995c1.279-1.297,1.264-3.386-0.033-4.667c-1.298-1.278-3.385-1.263-4.667,0.033    l-6.831,6.929l-6.831-6.929c-1.282-1.301-3.369-1.312-4.667-0.033c-1.297,1.28-1.312,3.369-0.032,4.667l6.897,6.995l-6.897,6.996    c-1.28,1.297-1.265,3.385,0.032,4.665c0.643,0.634,1.48,0.949,2.317,0.949c0.852,0,1.703-0.329,2.35-0.984l6.831-6.928    l6.831,6.928c0.647,0.655,1.498,0.984,2.35,0.984c0.837,0,1.673-0.316,2.317-0.949c1.297-1.28,1.312-3.368,0.033-4.665    L341.025,209.945z"/><path d="M321.024,218.321c-0.276,0-0.5-0.224-0.5-0.5v-10.519c0-0.276,0.224-0.5,0.5-0.5c5.605,0,10.166-4.561,10.166-10.167    s-4.561-10.167-10.166-10.167c-0.276,0-0.5-0.224-0.5-0.5v-10.519c0-0.276,0.224-0.5,0.5-0.5c11.957,0,21.685,9.728,21.685,21.686    C342.709,208.593,332.981,218.321,321.024,218.321z M321.524,207.792v9.524c11.176-0.267,20.185-9.44,20.185-20.679    s-9.009-20.413-20.185-20.68v9.524c5.926,0.262,10.666,5.166,10.666,11.156S327.45,207.529,321.524,207.792z" fill="#000000"/><path d="M111.257,219.141c-0.207,0-0.375-0.168-0.375-0.375v-6.294c0-0.207,0.168-0.375,0.375-0.375s0.375,0.168,0.375,0.375     v6.294C111.632,218.973,111.464,219.141,111.257,219.141z" fill="#000000"/><path d="M106.539,221.864c-0.064,0-0.129-0.016-0.188-0.05l-5.45-3.147c-0.18-0.104-0.241-0.333-0.138-0.512     c0.104-0.18,0.336-0.24,0.513-0.137l5.45,3.147c0.18,0.104,0.241,0.333,0.138,0.512     C106.794,221.796,106.668,221.864,106.539,221.864z" fill="#000000"/><path d="M101.089,230.458c-0.129,0-0.255-0.067-0.325-0.188c-0.104-0.179-0.042-0.409,0.138-0.512l5.45-3.147     c0.175-0.103,0.406-0.043,0.513,0.137c0.104,0.179,0.042,0.409-0.138,0.512l-5.45,3.147     C101.218,230.441,101.153,230.458,101.089,230.458z" fill="#000000"/><path d="M111.257,236.328c-0.207,0-0.375-0.168-0.375-0.375v-6.293c0-0.207,0.168-0.375,0.375-0.375s0.375,0.168,0.375,0.375     v6.293C111.632,236.16,111.464,236.328,111.257,236.328z" fill="#000000"/><path d="M121.424,230.458c-0.064,0-0.129-0.016-0.188-0.05l-5.45-3.147c-0.18-0.104-0.241-0.333-0.138-0.512     c0.105-0.181,0.337-0.24,0.513-0.137l5.45,3.147c0.18,0.104,0.241,0.333,0.138,0.512     C121.679,230.39,121.553,230.458,121.424,230.458z" fill="#000000"/><path d="M115.974,221.864c-0.129,0-0.255-0.067-0.325-0.188c-0.104-0.179-0.042-0.409,0.138-0.512l5.45-3.147     c0.175-0.103,0.406-0.043,0.513,0.137c0.104,0.179,0.042,0.409-0.138,0.512l-5.45,3.147     C116.103,221.848,116.038,221.864,115.974,221.864z" fill="#000000"/><path d="M315.386,90.022c-0.207,0-0.375-0.168-0.375-0.375V85.77c0-0.207,0.168-0.375,0.375-0.375s0.375,0.168,0.375,0.375v3.877     C315.761,89.854,315.593,90.022,315.386,90.022z" fill="#000000"/><path d="M312.48,91.7c-0.064,0-0.128-0.016-0.188-0.05l-3.358-1.938c-0.18-0.104-0.241-0.333-0.138-0.512     c0.105-0.179,0.334-0.24,0.513-0.137L312.668,91c0.18,0.104,0.241,0.333,0.138,0.512C312.735,91.632,312.609,91.7,312.48,91.7z" fill="#000000"/><path d="M309.122,96.993c-0.129,0-0.255-0.067-0.325-0.188c-0.104-0.179-0.042-0.409,0.138-0.512l3.358-1.938     c0.179-0.103,0.408-0.042,0.513,0.137c0.104,0.179,0.042,0.409-0.138,0.512l-3.358,1.938     C309.251,96.977,309.186,96.993,309.122,96.993z" fill="#000000"/><path d="M315.386,100.609c-0.207,0-0.375-0.168-0.375-0.375v-3.877c0-0.207,0.168-0.375,0.375-0.375s0.375,0.168,0.375,0.375     v3.877C315.761,100.441,315.593,100.609,315.386,100.609z" fill="#000000"/><path d="M321.648,96.993c-0.064,0-0.129-0.016-0.188-0.05l-3.357-1.938c-0.18-0.104-0.241-0.333-0.138-0.512     c0.104-0.18,0.336-0.24,0.513-0.137l3.357,1.938c0.18,0.104,0.241,0.333,0.138,0.512     C321.903,96.926,321.777,96.993,321.648,96.993z" fill="#000000"/><path d="M318.291,91.7c-0.129,0-0.255-0.067-0.325-0.188c-0.104-0.179-0.042-0.409,0.138-0.512l3.357-1.938     c0.179-0.103,0.408-0.042,0.513,0.137c0.104,0.179,0.042,0.409-0.138,0.512l-3.357,1.938     C318.42,91.684,318.354,91.7,318.291,91.7z" fill="#000000"/><polygon fill="#c7308c" points="143.804 110.617 137.137 110.617 137.137 103.95 133.656 103.95 133.656 110.617 126.989 110.617 126.989 114.098 133.656 114.098 133.656 120.765 137.137 120.765 137.137 114.098 143.804 114.098"/><defs fill="#000000"><rect id="a" width="83.111" height="83.111" x="218.047" y="128.154" fill="#000000"/></defs><clipPath id="b" fill="#000000"><use overflow="visible" xlink:href="#a" fill="#000000"/></clipPath><g clip-path="url(#b)"><line x1="217.01" x2="299.676" y1="130.398" y2="212.432" fill="#BB4FED"/></g><g clip-path="url(#b)"><line x1="221.155" x2="303.822" y1="124.097" y2="206.131" fill="#BB4FED"/></g><g clip-path="url(#b)"><line x1="225.3" x2="307.967" y1="117.796" y2="199.83" fill="#BB4FED"/></g><g clip-path="url(#b)"><line x1="229.445" x2="312.112" y1="111.495" y2="193.529" fill="#BB4FED"/></g><g clip-path="url(#b)"><line x1="233.59" x2="316.257" y1="105.194" y2="187.228" fill="#BB4FED"/></g><g clip-path="url(#b)"><line x1="237.736" x2="320.402" y1="98.894" y2="180.927" fill="#BB4FED"/></g><g clip-path="url(#b)"><line x1="241.881" x2="324.548" y1="92.593" y2="174.627" fill="#BB4FED"/></g><g clip-path="url(#b)"><line x1="246.026" x2="328.693" y1="86.292" y2="168.326" fill="#BB4FED"/></g><g clip-path="url(#b)"><line x1="250.171" x2="332.838" y1="79.991" y2="162.025" fill="#BB4FED"/></g><g clip-path="url(#b)"><line x1="212.875" x2="295.542" y1="136.091" y2="218.125" fill="#BB4FED"/></g><g clip-path="url(#b)"><line x1="208.74" x2="291.407" y1="141.784" y2="223.818" fill="#BB4FED"/></g><g clip-path="url(#b)"><line x1="204.606" x2="287.273" y1="147.477" y2="229.51" fill="#BB4FED"/></g><g clip-path="url(#b)"><line x1="200.471" x2="283.138" y1="153.17" y2="235.203" fill="#BB4FED"/></g><g clip-path="url(#b)"><line x1="196.337" x2="279.003" y1="158.862" y2="240.896" fill="#BB4FED"/></g><g clip-path="url(#b)"><line x1="192.202" x2="274.869" y1="164.555" y2="246.589" fill="#BB4FED"/></g><g clip-path="url(#b)"><line x1="188.068" x2="270.734" y1="170.248" y2="252.282" fill="#BB4FED"/></g><g clip-path="url(#b)"><line x1="183.933" x2="266.6" y1="175.941" y2="257.975" fill="#BB4FED"/></g><path fill="#BB4FED" d="M119.868,154.298c-0.207,0-0.413-0.085-0.563-0.249c-0.282-0.312-0.258-0.793,0.053-1.075l6.53-5.91     c0.306-0.276,0.776-0.26,1.06,0.04l5.095,5.351l5.444-5.368c0.291-0.285,0.755-0.289,1.052-0.013l5.843,5.453l6.577-5.481     c0.289-0.24,0.705-0.235,0.986,0.01l6.586,5.742c0.316,0.276,0.349,0.755,0.073,1.072c-0.276,0.319-0.755,0.35-1.072,0.074     l-6.098-5.316l-6.594,5.495c-0.296,0.246-0.725,0.233-1.006-0.028l-5.8-5.413l-5.475,5.4c-0.145,0.141-0.376,0.217-0.545,0.218     c-0.204-0.003-0.398-0.088-0.539-0.236l-5.118-5.373l-5.981,5.413C120.232,154.232,120.05,154.298,119.868,154.298z"/><rect width="2.065" height="2.065" x="121.589" y="265.55" fill="#000000"/><rect width="2.065" height="2.065" x="129.753" y="265.55" fill="#000000"/><rect width="2.065" height="2.065" x="137.917" y="265.55" fill="#000000"/><rect width="2.065" height="2.065" x="146.082" y="265.55" fill="#000000"/><rect width="2.065" height="2.065" x="154.246" y="265.55" fill="#000000"/><rect width="2.065" height="2.065" x="162.41" y="265.55" fill="#000000"/><rect width="2.065" height="2.065" x="170.575" y="265.55" fill="#000000"/><rect width="2.065" height="2.065" x="178.739" y="265.55" fill="#000000"/><rect width="2.065" height="2.065" x="186.903" y="265.55" fill="#000000"/><rect width="2.065" height="2.065" x="195.068" y="265.55" fill="#000000"/><rect width="2.065" height="2.065" x="203.232" y="265.55" fill="#000000"/><rect width="2.065" height="2.065" x="211.396" y="265.55" fill="#000000"/><rect width="2.065" height="2.065" x="219.56" y="265.55" fill="#000000"/><rect width="2.065" height="2.065" x="227.725" y="265.55" fill="#000000"/><rect width="2.065" height="2.065" x="121.589" y="273.851" fill="#000000"/><rect width="2.065" height="2.065" x="129.753" y="273.851" fill="#000000"/><rect width="2.065" height="2.065" x="137.917" y="273.851" fill="#000000"/><rect width="2.065" height="2.065" x="146.082" y="273.851" fill="#000000"/><rect width="2.065" height="2.065" x="154.246" y="273.851" fill="#000000"/><rect width="2.065" height="2.065" x="162.41" y="273.851" fill="#000000"/><rect width="2.065" height="2.065" x="170.575" y="273.851" fill="#000000"/><rect width="2.065" height="2.065" x="178.739" y="273.851" fill="#000000"/><rect width="2.065" height="2.065" x="186.903" y="273.851" fill="#000000"/><rect width="2.065" height="2.065" x="195.068" y="273.851" fill="#000000"/><rect width="2.065" height="2.065" x="203.232" y="273.851" fill="#000000"/><rect width="2.065" height="2.065" x="211.396" y="273.851" fill="#000000"/><rect width="2.065" height="2.065" x="219.56" y="273.851" fill="#000000"/><rect width="2.065" height="2.065" x="227.725" y="273.851" fill="#000000"/><g><rect width="2.065" height="2.065" x="121.589" y="282.152" fill="#000000"/><rect width="2.065" height="2.065" x="129.753" y="282.152" fill="#000000"/><rect width="2.065" height="2.065" x="137.917" y="282.152" fill="#000000"/><rect width="2.065" height="2.065" x="146.082" y="282.152" fill="#000000"/><rect width="2.065" height="2.065" x="154.246" y="282.152" fill="#000000"/><rect width="2.065" height="2.065" x="162.41" y="282.152" fill="#000000"/><rect width="2.065" height="2.065" x="170.575" y="282.152" fill="#000000"/><rect width="2.065" height="2.065" x="178.739" y="282.152" fill="#000000"/><rect width="2.065" height="2.065" x="186.903" y="282.152" fill="#000000"/><rect width="2.065" height="2.065" x="195.068" y="282.152" fill="#000000"/><rect width="2.065" height="2.065" x="203.232" y="282.152" fill="#000000"/><rect width="2.065" height="2.065" x="211.396" y="282.152" fill="#000000"/><rect width="2.065" height="2.065" x="219.56" y="282.152" fill="#000000"/><rect width="2.065" height="2.065" x="227.725" y="282.152" fill="#000000"/></g><g><rect width="2.065" height="2.065" x="121.589" y="290.452" fill="#000000"/><rect width="2.065" height="2.065" x="129.753" y="290.452" fill="#000000"/><rect width="2.065" height="2.065" x="137.917" y="290.452" fill="#000000"/><rect width="2.065" height="2.065" x="146.082" y="290.452" fill="#000000"/><rect width="2.065" height="2.065" x="154.246" y="290.452" fill="#000000"/><rect width="2.065" height="2.065" x="162.41" y="290.452" fill="#000000"/><rect width="2.065" height="2.065" x="170.575" y="290.452" fill="#000000"/><rect width="2.065" height="2.065" x="178.739" y="290.452" fill="#000000"/><rect width="2.065" height="2.065" x="186.903" y="290.452" fill="#000000"/><rect width="2.065" height="2.065" x="195.068" y="290.452" fill="#000000"/><rect width="2.065" height="2.065" x="203.232" y="290.452" fill="#000000"/><rect width="2.065" height="2.065" x="211.396" y="290.452" fill="#000000"/><rect width="2.065" height="2.065" x="219.56" y="290.452" fill="#000000"/><rect width="2.065" height="2.065" x="227.725" y="290.452" fill="#000000"/></g><g><rect width="2.065" height="2.065" x="121.589" y="298.753" fill="#000000"/><rect width="2.065" height="2.065" x="129.753" y="298.753" fill="#000000"/><rect width="2.065" height="2.065" x="137.917" y="298.753" fill="#000000"/><rect width="2.065" height="2.065" x="146.082" y="298.753" fill="#000000"/><rect width="2.065" height="2.065" x="154.246" y="298.753" fill="#000000"/><rect width="2.065" height="2.065" x="162.41" y="298.753" fill="#000000"/><rect width="2.065" height="2.065" x="170.575" y="298.753" fill="#000000"/><rect width="2.065" height="2.065" x="178.739" y="298.753" fill="#000000"/><rect width="2.065" height="2.065" x="186.903" y="298.753" fill="#000000"/><rect width="2.065" height="2.065" x="195.068" y="298.753" fill="#000000"/><rect width="2.065" height="2.065" x="203.232" y="298.753" fill="#000000"/><rect width="2.065" height="2.065" x="211.396" y="298.753" fill="#000000"/><rect width="2.065" height="2.065" x="219.56" y="298.753" fill="#000000"/><rect width="2.065" height="2.065" x="227.725" y="298.753" fill="#000000"/></g><g><rect width="2.065" height="2.065" x="121.589" y="307.054" fill="#000000"/><rect width="2.065" height="2.065" x="129.753" y="307.054" fill="#000000"/><rect width="2.065" height="2.065" x="137.917" y="307.054" fill="#000000"/><rect width="2.065" height="2.065" x="146.082" y="307.054" fill="#000000"/><rect width="2.065" height="2.065" x="154.246" y="307.054" fill="#000000"/><rect width="2.065" height="2.065" x="162.41" y="307.054" fill="#000000"/><rect width="2.065" height="2.065" x="170.575" y="307.054" fill="#000000"/><rect width="2.065" height="2.065" x="178.739" y="307.054" fill="#000000"/><rect width="2.065" height="2.065" x="186.903" y="307.054" fill="#000000"/><rect width="2.065" height="2.065" x="195.068" y="307.054" fill="#000000"/><rect width="2.065" height="2.065" x="203.232" y="307.054" fill="#000000"/><rect width="2.065" height="2.065" x="211.396" y="307.054" fill="#000000"/><rect width="2.065" height="2.065" x="219.56" y="307.054" fill="#000000"/><rect width="2.065" height="2.065" x="227.725" y="307.054" fill="#000000"/></g><g><rect width="2.065" height="2.065" x="121.589" y="315.354" fill="#000000"/><rect width="2.065" height="2.065" x="129.753" y="315.354" fill="#000000"/><rect width="2.065" height="2.065" x="137.917" y="315.354" fill="#000000"/><rect width="2.065" height="2.065" x="146.082" y="315.354" fill="#000000"/><rect width="2.065" height="2.065" x="154.246" y="315.354" fill="#000000"/><rect width="2.065" height="2.065" x="162.41" y="315.354" fill="#000000"/><rect width="2.065" height="2.065" x="170.575" y="315.354" fill="#000000"/><rect width="2.065" height="2.065" x="178.739" y="315.354" fill="#000000"/><rect width="2.065" height="2.065" x="186.903" y="315.354" fill="#000000"/><rect width="2.065" height="2.065" x="195.068" y="315.354" fill="#000000"/><rect width="2.065" height="2.065" x="203.232" y="315.354" fill="#000000"/><rect width="2.065" height="2.065" x="211.396" y="315.354" fill="#000000"/><rect width="2.065" height="2.065" x="219.56" y="315.354" fill="#000000"/><rect width="2.065" height="2.065" x="227.725" y="315.354" fill="#000000"/></g><g><path fill="#D3F992" d="M221.565,41.819c-0.635,0-1.15-0.514-1.15-1.15V24.574c0-0.635,0.514-1.15,1.15-1.15      s1.15,0.514,1.15,1.15v16.095C222.714,41.305,222.2,41.819,221.565,41.819z"/><path fill="#D3F992" d="M203.807,45.214c-0.45,0-0.879-0.267-1.062-0.71l-6.159-14.869c-0.242-0.586,0.036-1.26,0.622-1.502      c0.584-0.245,1.259,0.036,1.502,0.622l6.159,14.869c0.242,0.586-0.036,1.26-0.622,1.502      C204.104,45.187,203.954,45.214,203.807,45.214z"/><path fill="#D3F992" d="M188.701,55.147c-0.294,0-0.588-0.112-0.813-0.337l-11.381-11.382c-0.449-0.449-0.449-1.177,0-1.626      s1.177-0.449,1.626,0l11.381,11.382c0.449,0.449,0.449,1.177,0,1.626C189.29,55.035,188.996,55.147,188.701,55.147z"/><path fill="#D3F992" d="M178.547,70.106c-0.147,0-0.296-0.027-0.44-0.088l-14.87-6.159c-0.586-0.243-0.864-0.916-0.622-1.502      c0.242-0.586,0.917-0.867,1.502-0.622l14.87,6.159c0.586,0.243,0.864,0.916,0.622,1.502      C179.426,69.839,178.997,70.106,178.547,70.106z"/><path fill="#D3F992" d="M174.889,87.813h-16.095c-0.635,0-1.15-0.514-1.15-1.15c0-0.635,0.514-1.15,1.15-1.15h16.095      c0.635,0,1.15,0.514,1.15,1.15C176.039,87.299,175.524,87.813,174.889,87.813z"/><path fill="#D3F992" d="M163.416,111.729c-0.45,0-0.879-0.267-1.062-0.71c-0.242-0.586,0.036-1.26,0.622-1.502l14.87-6.159      c0.583-0.245,1.26,0.036,1.502,0.622c0.242,0.586-0.036,1.26-0.622,1.502l-14.87,6.159      C163.713,111.702,163.563,111.729,163.416,111.729z"/><path fill="#D3F992" d="M176.839,132.058c-0.294,0-0.588-0.112-0.813-0.337c-0.449-0.449-0.449-1.177,0-1.626l11.381-11.382      c0.449-0.449,1.177-0.449,1.626,0c0.449,0.449,0.449,1.177,0,1.626l-11.381,11.382      C177.427,131.946,177.133,132.058,176.839,132.058z"/><path fill="#D3F992" d="M197.018,145.699c-0.147,0-0.296-0.027-0.44-0.088c-0.586-0.242-0.864-0.916-0.622-1.502l6.16-14.869      c0.243-0.586,0.917-0.869,1.502-0.622c0.586,0.243,0.864,0.916,0.622,1.502l-6.16,14.869      C197.897,145.432,197.469,145.699,197.018,145.699z"/><path fill="#D3F992" d="M220.883,150.583c-0.635,0-1.15-0.514-1.15-1.15v-16.095c0-0.635,0.514-1.15,1.15-1.15      s1.15,0.514,1.15,1.15v16.095C222.033,150.068,221.519,150.583,220.883,150.583z"/><path fill="#D3F992" d="M244.801,145.959c-0.45,0-0.879-0.267-1.062-0.71l-6.16-14.869c-0.242-0.586,0.036-1.26,0.622-1.502      c0.584-0.247,1.261,0.036,1.502,0.622l6.16,14.869c0.243,0.586-0.036,1.26-0.622,1.502      C245.097,145.932,244.948,145.959,244.801,145.959z"/><path fill="#D3F992" d="M265.129,132.536c-0.294,0-0.588-0.112-0.813-0.337l-11.382-11.38c-0.449-0.449-0.449-1.177,0-1.626      c0.449-0.449,1.177-0.449,1.626,0l11.382,11.38c0.449,0.449,0.449,1.177,0,1.626      C265.717,132.424,265.423,132.536,265.129,132.536z"/><path fill="#D3F992" d="M278.771,112.357c-0.147,0-0.296-0.027-0.44-0.088l-14.87-6.159c-0.586-0.243-0.864-0.916-0.622-1.502      c0.243-0.586,0.921-0.867,1.502-0.622l14.87,6.159c0.586,0.243,0.864,0.916,0.622,1.502      C279.65,112.09,279.222,112.357,278.771,112.357z"/><path fill="#D3F992" d="M283.654,88.493h-16.095c-0.635,0-1.15-0.514-1.15-1.15s0.514-1.15,1.15-1.15h16.095      c0.635,0,1.15,0.514,1.15,1.15S284.289,88.493,283.654,88.493z"/><path fill="#D3F992" d="M264.163,70.737c-0.45,0-0.879-0.267-1.062-0.71c-0.242-0.586,0.036-1.26,0.622-1.502l14.87-6.159      c0.583-0.245,1.261,0.036,1.502,0.622c0.242,0.586-0.036,1.26-0.622,1.502l-14.87,6.159      C264.459,70.71,264.31,70.737,264.163,70.737z"/><path fill="#D3F992" d="M254.229,55.63c-0.294,0-0.588-0.112-0.813-0.337c-0.449-0.449-0.449-1.177,0-1.626l11.381-11.382      c0.449-0.449,1.177-0.449,1.626,0c0.449,0.449,0.449,1.177,0,1.626l-11.381,11.382C254.818,55.518,254.524,55.63,254.229,55.63z      "/><path fill="#D3F992" d="M239.271,45.476c-0.147,0-0.296-0.027-0.44-0.088c-0.586-0.243-0.864-0.916-0.622-1.502l6.158-14.871      c0.244-0.586,0.918-0.867,1.502-0.622c0.586,0.243,0.864,0.916,0.622,1.502l-6.158,14.871      C240.15,45.209,239.721,45.476,239.271,45.476z"/></g><g><path fill="#5D80F6" d="M221.698,178.33h-19.637c-1.4,0-2.535,1.135-2.535,2.535v24.463c0,0.672,0.267,1.317,0.742,1.793    l9.94,9.94c0.475,0.475,0.742,1.12,0.742,1.793v0c0,1.262,0.928,2.332,2.178,2.51l8.212,1.168c0.237,0.034,0.477,0.034,0.714,0    l8.212-1.168c1.25-0.178,2.178-1.248,2.178-2.51l0,0c0-0.672,0.267-1.317,0.742-1.793l9.94-9.94    c0.475-0.475,0.742-1.12,0.742-1.793v-24.463c0-1.4-1.135-2.535-2.535-2.535H221.698z"/></g><g><polygon fill="#BB4FED" points="191.822 292.422 157.408 267.524 151.599 180.391 167.497 182.837 175.962 203.783"/></g><g><polygon fill="#BB4FED" points="334.121 376.575 259.083 333.257 203.574 312.161 167.497 254.989 173.306 207.907 193.485 176.575 206.02 192.62 198.682 219.83 239.65 256.518 259.083 257.741 240.567 211.881 243.013 176.575 259.083 171.524 294.376 244.595 335.65 272.11 351.548 304.212 498.911 376.575"/></g><g><polygon fill="#5412A0" points="175.962 203.783 173.306 207.907 167.497 254.989 190.527 291.485 157.408 267.524 164.822 214.48 173.967 198.846"/></g><g><polygon fill="#5412A0" points="267.319 274.05 264.057 267.59 264.057 267.59 264.057 267.59 259.083 257.741 239.65 256.518 212.12 231.864 198.682 219.83 198.682 245.165 226.504 274.05 257.459 280.518 269.383 281.435"/></g><g><polygon fill="#5412A0" points="261.484 334.643 360.644 376.575 334.121 376.575"/></g><g><polygon fill="#5412A0" points="335.65 272.11 347.115 312.849 369.137 312.849 351.548 304.212"/></g><g><path fill="#c7308c" d="M267.322,127.847l0.06-0.108h-0.005c3.848-7.472,5.931-16.002,5.66-25.047    c-0.806-26.841-22.634-48.806-49.47-49.758c-29.219-1.037-53.233,22.342-53.233,51.33c0,8.462,2.059,16.438,5.683,23.476h-0.005    l0.492,0.951c0.011,0.02,0.021,0.041,0.032,0.061l15.06,29.09c1.743,3.366,2.652,7.101,2.652,10.891v4.321l5.277,5.277h20.782    h1.39h20.782l5.277-5.277v-3.935c0-4.036,1.031-8.004,2.995-11.53l14.855-26.662C266.216,129.924,266.78,128.893,267.322,127.847z    "/></g><g><path fill="#5412A0" d="M242.48,178.33h-1.145c0,0-0.2,1.326-0.518,3.46c-0.094,0.628-0.633,1.097-1.268,1.097h-38.219    c-0.349,0-0.683-0.143-0.925-0.395l-0.878-0.917v2.292c0,0.286,0.096,0.564,0.272,0.789l5.828,7.46    c0.248,0.318,0.332,0.733,0.227,1.122l-3.942,14.617c-0.119,0.443,0.007,0.915,0.331,1.24l3.436,3.436l2.478,2.479    c0.24,0.24,0.566,0.375,0.906,0.375h25.27c0.34,0,0.666-0.135,0.906-0.375l2.479-2.479h0l2.675-2.675    c0.219-0.219,0.351-0.509,0.372-0.817l2.158-31.151L242.48,178.33z M206.518,185.741h32.225c0.782,0,1.383,0.69,1.268,1.464    c-0.096,0.646-0.194,1.314-0.295,1.997c-0.093,0.629-0.632,1.096-1.268,1.096h-30.019c-0.349,0-0.684-0.143-0.925-0.395    l-1.911-1.995C204.813,187.094,205.39,185.741,206.518,185.741z M208.741,196.304l0.194-1.995    c0.064-0.657,0.616-1.157,1.275-1.157h27.444c0.781,0,1.381,0.69,1.268,1.464c-0.097,0.664-0.194,1.331-0.291,1.997    c-0.091,0.63-0.631,1.096-1.268,1.096h-27.347C209.26,197.709,208.668,197.057,208.741,196.304z M237.853,202.026    c-0.097,0.68-0.191,1.347-0.282,1.996c-0.089,0.633-0.629,1.097-1.268,1.097h-27.006c-0.757,0-1.348-0.652-1.275-1.405    l0.194-1.995c0.064-0.657,0.616-1.157,1.275-1.157h27.094C237.364,200.563,237.962,201.254,237.853,202.026z M207.302,211.126    l0.194-1.995c0.064-0.657,0.616-1.157,1.275-1.157h26.789c0.775,0,1.371,0.685,1.27,1.453c-0.098,0.739-0.183,1.406-0.255,1.985    c-0.079,0.641-0.624,1.119-1.271,1.119h-26.726C207.821,212.531,207.229,211.879,207.302,211.126z"/></g><g><path fill="#5412A0" d="M228.726,141.165l-2.899,3.245v3.875h-4.602h-4.602v-3.875l-2.899-3.245l-3.984,4.265l4.182,3.855h1.702    v29.045h1v-29.045h4.602h4.602v29.045h1v-29.045h1.702l4.182-3.855L228.726,141.165z M215.622,148.285h-1.311l-3.155-2.908    l2.55-2.729l1.916,2.144V148.285z M228.137,148.285h-1.311v-3.494l1.916-2.144l2.55,2.729L228.137,148.285z"/></g></svg>