<svg xmlns="http://www.w3.org/2000/svg" data-name="Layer 1" viewBox="0 0 848 1173.48"><path fill="#ff9376" d="M721.73 368.07c5.16-11 13.51-32.87 32.64-38.57 27.75-8.26 29.23 22.51 27.49 26.76s-40 15.55-53.09 21.27c-12.32 5.37-7.04-9.46-7.04-9.46Z"/><path fill="#753271" d="M536.91 235.83c65.4 69.37 52.12 121.39 100 126.79s85.63-35.17 98.65-17.44C738 359 759.68 376.51 718 395.71s-124.31 44.38-151.68 20.78-61.45-49.37-61.75-79 32.34-101.66 32.34-101.66Z"/><ellipse cx="410.03" cy="1088.85" fill="#d1d3d4" rx="344.39" ry="18.56"/><path fill="#231f20" d="M221.74 904.49c-46.54 17.52-78.19 7.14-69.28 42.39 6.87 27.15 18.49 79.53 27.41 94.81 8.42 14.41 23.91-76.84 38.84-101.17 16.1-26.25 43.07-51.11 3.03-36.03ZM537.11 1007.13c3.24 49.63-15.9 76.9 20.42 78.61 28 1.33 81.47 5.43 98.68 1.34 16.24-3.87-66.56-45.22-85.51-66.58-20.43-23.03-36.38-56.05-33.59-13.37Z"/><path fill="#e08675" d="M451.18 496.42V307.1h14.05v189.32"/><path fill="#2e1926" d="M204.57 904.84c47.11-28.61 127.88-70.67 127.88-173.31S324 524.9 344.22 519.85s198-.89 203-.89S559 708.53 572.49 791s15.15 223.78 5 230.51-53.28 23-53.28-15.7-51.32-302.58-68.14-344c-21.45-52.75-2.53 105-44.59 160.56S262.9 942.41 216.35 946.9c-22.43-17.9-11.78-42.06-11.78-42.06Z"/><path fill="#311338" d="m342.21 329.23-1 .64a5.26 5.26 0 0 1 .52-.35Z"/><path fill="#753271" d="M547.82 530.58c-22.42 4.36-210.32 4.8-215.37-9.37-4.81-13.51-5.81-167.41 7.18-189.4 2.56-45.56 0-85.56 66.86-108 37.21-5.21 79.62-1.29 128.4 10 49.11 11.3 35.34 292.42 12.93 296.77Z"/><path fill="#e08675" d="M491.92 171.36c2.19 52.21 10.6 79.4-19.75 80.76s-45.13-3.48-43.59-23.45-1.33-85.18 1.65-101.4 61.69 44.09 61.69 44.09Z"/><path fill="#231f20" d="M440.76 174.55c12.76.59 29.48-32.32 52.59-38 37.07-9.07 22-20.82 17.75-24.06a13.24 13.24 0 0 1-4.65-.32 11.8 11.8 0 0 1-6.36-4.39 20.94 20.94 0 0 1-3.54-19.16l.54.13c.09 9.66-64.35-33.51-80.06 21-13.72 47.59 2.56 63.85 23.73 64.8Z"/><path fill="#ff9376" d="M454.7 122.68c20.81-21.61 60.8-32.47 58.63 19.2-2.17 51.89-2.18 61.82-18.24 66-33.08 8.6-60.38-10.81-63.85-44.41s23.46-40.79 23.46-40.79Z"/><path fill="#231f20" d="M513.47 100.68a14.56 14.56 0 0 0-2.52-7.3c-1.6-2.51-6.71-3.63-12.43-4.91.09 9.66 7.82 13.04 14.95 12.21Z"/><path fill="#231f20" d="M468.12 112.38c6.25 1.55 13.07 14.54 29.67 6.16a44.42 44.42 0 0 0 10.09-6.64 11.85 11.85 0 0 1-6.36-4.39A20.91 20.91 0 0 1 498 88.35 64.53 64.53 0 0 1 486.53 85c-35.4-15.67-11.93-1.88-11.07-1.38-17.22-6.45-19.24 6-9.86 12.58-6.42 4.19-4.79 14.38 2.52 16.18ZM443.53 118.46c.51-18.41-11.88-16.28-15.1-5.25-6.06-4.69-17.23-2.26-16.55 5.24.58 6.4-7.4 19.52 5.92 32.49 14.17 13.78 22.86 10.85 28.1 4.23 3.15-4-.85-16.39 0-25.82 3.28-39.29-2.37-10.89-2.37-10.89Z"/><path fill="#ff9376" d="M419.8 141.7c18.31-14.33 28.29 20.37 22.33 27.92s-33.87-18.89-22.33-27.92Z"/><path fill="#753271" d="M567.77 111.77a6.7 6.7 0 0 1-2 4.72 6.62 6.62 0 0 1-4.72 2H411.88a53.69 53.69 0 0 1 105.32-13.42h43.89a6.7 6.7 0 0 1 6.68 6.7Z"/><path fill="#fff" d="M513.7 317.22h43.19v21.94H513.7z"/><rect width="192.69" height="123.6" x="231.23" y="361.48" fill="#c24ad9" rx="6.65"/><path fill="#ff9376" d="M318.86 361.48h17.43v123.6h-17.43z"/><path fill="#ff9376" d="M318.86 326.93h17.43v192.69h-17.43z" transform="rotate(90 327.575 423.275)"/><path fill="#ff9376" d="M390.19 500.08c-2.5 4-7.12 6-12.16 6.11-13.9.41-31.09 5.34-40.11-11.21-13.08-24 17.93-15.43 22.91-15.22s34-1.76 32.12 12.16a20.25 20.25 0 0 1-2.76 8.16Z"/><path fill="#311338" d="M395.16 224.82c-52.62 20.05-87.49 53.13-106.67 77.73-32.87 42.18-32.89 64.5 29.17 191.53 14.54 29.77 51 .39 41.72-5.83s-25.37-97-25.14-116.63c.15-13.58 17.56-32.33 24.42-39.13a4 4 0 0 1 .39-.42l.39-.36-.78.78a6.44 6.44 0 0 0-1 2c15.86-14.93 46.37-24.75 61.54-51.84 10.12-18.01.08-43.92-24.04-57.83Zm-35.6 106.79c1-1 1.63-1.56 1.79-1.67-.12.15-.68.67-1.79 1.67Z"/></svg>