<?xml version="1.0" standalone="no"?>
<!DOCTYPE svg PUBLIC "-//W3C//DTD SVG 20010904//EN"
 "http://www.w3.org/TR/2001/REC-SVG-20010904/DTD/svg10.dtd">
<svg version="1.0" xmlns="http://www.w3.org/2000/svg"
 width="50.000000pt" height="50.000000pt" viewBox="0 0 50.000000 50.000000"
 preserveAspectRatio="xMidYMid meet">

<g transform="translate(0.000000,50.000000) scale(0.100000,-0.100000)"
fill="#ffffff" stroke="none">
<path d="M205 465 c-44 -43 -28 -94 56 -169 28 -25 55 -46 59 -46 4 0 31 21
59 46 84 75 100 126 56 169 -26 27 -64 32 -95 13 -16 -10 -24 -10 -40 0 -31
19 -69 14 -95 -13z m95 -15 l20 -20 20 20 c11 11 29 20 40 20 26 0 60 -34 60
-61 0 -25 -96 -129 -120 -129 -24 0 -120 104 -120 129 0 27 34 61 60 61 11 0
29 -9 40 -20z"/>
<path d="M390 185 c-51 -51 -57 -55 -100 -54 -41 1 -42 2 -14 8 42 11 54 19
54 40 0 33 -21 41 -118 41 l-94 0 -61 -60 -62 -59 52 -53 52 -52 24 22 c21 20
34 22 126 22 l103 0 74 72 c73 71 85 93 62 116 -22 22 -43 13 -98 -43z m86 24
c3 -6 -24 -41 -62 -80 l-68 -69 -105 0 c-84 0 -108 -3 -123 -17 -18 -16 -21
-15 -56 20 l-37 38 52 49 52 50 85 0 c115 0 134 -29 28 -45 -42 -6 -43 -7 -26
-26 13 -14 31 -19 73 -19 55 0 58 1 111 55 57 58 64 62 76 44z"/>
</g>
</svg>
