<!--?xml version="1.0" standalone="no"?-->
              <svg id="sw-js-blob-svg" viewBox="0 0 100 100" xmlns="http://www.w3.org/2000/svg" version="1.1">
                    <defs> 
                        <linearGradient id="sw-gradient" x1="0" x2="1" y1="1" y2="0">
                            <stop id="stop1" stop-color="rgba(128.812, 16.27, 191.321, 1)" offset="0%"></stop>
                            <stop id="stop2" stop-color="rgba(251, 31, 195.418, 1)" offset="100%"></stop>
                        </linearGradient>
                    </defs>
                <path fill="none" d="M23.3,-32.6C28.1,-28.5,28.5,-19,29,-11C29.5,-3,30,3.5,29.7,11.3C29.4,19,28.2,28.2,23.1,32.9C18.1,37.7,9,38.1,1.3,36.3C-6.4,34.4,-12.7,30.4,-18.1,25.7C-23.5,21,-27.9,15.8,-31.3,9.3C-34.6,2.8,-36.9,-5,-34.7,-11.1C-32.5,-17.3,-25.8,-21.8,-19.3,-25.3C-12.7,-28.7,-6.4,-31.2,1.4,-33.1C9.2,-35.1,18.5,-36.6,23.3,-32.6Z" width="100%" height="100%" transform="translate(50 50)" stroke-width="1" style="transition: all 0.3s ease 0s;" stroke="url(#sw-gradient)"></path>
              </svg>