<svg xmlns="http://www.w3.org/2000/svg" fill="none" viewBox="0 0 2000 2000"><path fill="#000000" d="M1542.2 1203.33C1464.47 1509.32 1174.13 1639.11 908.555 1574.34C642.98 1509.58 485.013 1231.51 555.682 953.349C626.351 675.185 898.91 501.967 1164.47 566.728C1430.02 631.489 1621.53 890.948 1542.2 1203.33Z"/><path fill="#9404fb" d="M1504.3 1155.16C1427.55 1457.28 1140.87 1585.42 878.676 1521.47C616.48 1457.53 460.495 1183 530.277 908.293C600.059 633.583 869.163 462.838 1131.36 526.692C1393.56 590.547 1582.61 846.817 1504.3 1155.16Z"/><path fill="#000000" d="M575.823 1297.71C573.783 1297.71 571.781 1297.17 570.027 1296.13C568.273 1295.09 566.832 1293.59 565.857 1291.8C538.168 1240.97 519.175 1185.87 509.665 1128.77C509.226 1125.84 509.955 1122.85 511.696 1120.45C513.438 1118.05 516.052 1116.43 518.977 1115.93C521.903 1115.44 524.905 1116.11 527.339 1117.81C529.773 1119.5 531.445 1122.08 531.994 1125C541.085 1179.61 559.255 1232.32 585.751 1280.93C586.694 1282.65 587.173 1284.59 587.139 1286.56C587.106 1288.52 586.562 1290.45 585.56 1292.14C584.558 1293.83 583.134 1295.23 581.427 1296.2C579.719 1297.18 577.788 1297.69 575.823 1297.69V1297.71Z"/><path fill="#000000" d="M894.552 541.547C891.829 541.555 889.194 540.581 887.131 538.804C885.068 537.027 883.714 534.566 883.317 531.872C882.92 529.178 883.508 526.431 884.971 524.135C886.435 521.839 888.677 520.147 891.287 519.369C971.185 495.378 1046.06 494.227 1134.04 515.688C1136.96 516.402 1139.48 518.245 1141.03 520.813C1142.59 523.381 1143.07 526.464 1142.36 529.382C1141.64 532.301 1139.8 534.816 1137.23 536.376C1134.66 537.935 1131.58 538.41 1128.66 537.697C1044.82 517.255 973.62 518.293 897.817 541.075C896.757 541.388 895.657 541.547 894.552 541.547Z"/><path fill="#000000" d="M834.602 562.197C831.969 562.201 829.416 561.288 827.384 559.613C825.351 557.939 823.966 555.609 823.465 553.024C822.965 550.439 823.381 547.76 824.642 545.449C825.902 543.137 827.929 541.337 830.374 540.358L842.718 535.394C845.491 534.339 848.566 534.414 851.283 535.603C854.001 536.791 856.144 538.999 857.251 541.75C858.359 544.502 858.343 547.578 857.206 550.318C856.07 553.057 853.904 555.242 851.174 556.402L838.83 561.366C837.487 561.911 836.051 562.193 834.602 562.197Z"/><path fill="#000000" d="M603.495 754.101C601.266 754.103 599.086 753.446 597.228 752.214C595.989 751.391 594.923 750.332 594.093 749.098C593.263 747.863 592.684 746.477 592.389 745.019C592.095 743.56 592.09 742.058 592.377 740.598C592.663 739.138 593.234 737.749 594.057 736.51C633.201 677.367 683.762 626.639 742.775 587.301C745.279 585.634 748.341 585.03 751.29 585.621C754.239 586.212 756.832 587.95 758.499 590.453C760.166 592.956 760.77 596.019 760.179 598.968C759.588 601.916 757.849 604.509 755.346 606.176C698.832 643.836 650.413 692.409 612.933 749.043C611.899 750.599 610.496 751.875 608.849 752.758C607.203 753.641 605.363 754.102 603.495 754.101Z"/><path fill="#000000" d="M1013.52 1392.37C997.517 1392.37 981.532 1391.3 965.672 1389.16C920.571 1383.32 877.093 1368.52 837.794 1345.64C798.495 1322.75 764.167 1292.24 736.828 1255.9C678.145 1178.12 651.021 1083.25 660.459 988.797C670.406 889.136 721.596 798.931 804.609 734.793L811.537 743.759L804.609 734.793C881.299 675.563 969.673 650.666 1060.27 662.822C1156.24 675.714 1247.14 730.678 1309.75 813.654C1426.55 968.431 1393.14 1193.69 1235.29 1315.62C1170.28 1365.85 1092.95 1392.37 1013.52 1392.37ZM1015.8 682.49C945.966 682.49 878.43 706.386 818.445 752.725C640.829 890.004 653.136 1107.35 754.911 1242.25C780.451 1276.2 812.52 1304.7 849.233 1326.07C885.946 1347.45 926.561 1361.27 968.692 1366.72C1058.48 1378.76 1148.25 1354.26 1221.45 1297.71C1369.55 1183.31 1401.05 972.281 1291.68 827.282C1232.72 749.119 1147.29 697.364 1057.29 685.283C1043.54 683.428 1029.68 682.495 1015.8 682.49Z"/><path fill="#000000" d="M1019.6 1156.67C1012.91 1156.68 1006.23 1156.23 999.609 1155.33C980.754 1152.89 962.577 1146.71 946.149 1137.14C929.72 1127.57 915.372 1114.81 903.949 1099.61C879.725 1067.9 868.385 1028.2 872.201 988.476C876.334 946.95 897.664 909.294 932.205 882.605C964.293 857.878 1001.19 847.497 1039.11 852.574C1079.11 857.954 1116.97 880.887 1142.93 915.297C1191.68 979.925 1177.81 1073.85 1112.01 1124.7C1085.61 1145.33 1053.1 1156.58 1019.6 1156.67ZM939.132 891.57L946.06 900.536C878.788 952.5 883.469 1034.87 922.031 1085.99C931.662 1098.78 943.753 1109.52 957.594 1117.58C971.435 1125.63 986.747 1130.84 1002.63 1132.89C1019.5 1135.13 1036.64 1133.97 1053.06 1129.48C1069.47 1125 1084.83 1117.27 1098.21 1106.77C1154.25 1063.49 1166.16 983.7 1124.9 928.924C1102.52 899.253 1070.16 879.603 1036.19 875.036C1004.4 870.77 973.278 879.585 946.154 900.536L939.132 891.57Z"/><path fill="#000000" d="M990.001 961.73C1015.58 941.967 1047.08 950.574 1064.28 973.376C1081.47 996.177 1076.54 1029.23 1053.29 1047.2C1030.04 1065.17 997.23 1061.26 980.035 1038.46C962.84 1015.66 963.878 981.813 990.001 961.73Z"/><path fill="#b0276c" d="M1350.46 727.563L1426.89 562.273L1579.21 430.542L1550.52 559.121L1673.42 574.523L1511.09 723.43L1350.46 727.563Z"/><path fill="#000000" d="M1021.52 1015.83C1019.2 1015.83 1016.93 1015.12 1015.03 1013.79C1013.12 1012.45 1011.67 1010.57 1010.88 1008.39C1010.08 1006.21 1009.97 1003.83 1010.57 1001.59C1011.17 999.341 1012.44 997.334 1014.22 995.837L1543.24 550.382C1545.53 548.447 1548.51 547.504 1551.5 547.761C1554.49 548.017 1557.26 549.452 1559.2 551.75C1561.13 554.048 1562.07 557.02 1561.82 560.013C1561.56 563.006 1560.12 565.774 1557.83 567.709L1028.81 1013.16C1026.78 1014.89 1024.19 1015.83 1021.52 1015.83Z"/><path fill="#000000" d="M1350.44 738.889C1348.54 738.887 1346.67 738.407 1345.01 737.493C1343.34 736.579 1341.93 735.26 1340.91 733.658C1339.89 732.056 1339.28 730.223 1339.15 728.326C1339.03 726.43 1339.38 724.532 1340.18 722.807L1416.62 557.516C1417.3 556.07 1418.28 554.783 1419.49 553.741L1571.79 421.898C1573.6 420.342 1575.84 419.393 1578.21 419.186C1580.58 418.978 1582.96 419.524 1585 420.744C1587.05 421.965 1588.66 423.798 1589.6 425.984C1590.54 428.17 1590.77 430.597 1590.25 432.921L1564.24 549.438L1674.76 563.273C1676.91 563.541 1678.93 564.417 1680.59 565.799C1682.26 567.181 1683.49 569.01 1684.15 571.071C1684.81 573.132 1684.86 575.338 1684.3 577.428C1683.75 579.518 1682.6 581.405 1681.01 582.866L1518.68 731.773C1516.66 733.627 1514.04 734.687 1511.3 734.755L1350.67 738.889H1350.44ZM1436.16 569.238L1368.38 715.766L1506.56 712.218L1647.73 582.715L1549.14 570.352C1547.58 570.155 1546.07 569.634 1544.72 568.822C1543.37 568.009 1542.2 566.923 1541.29 565.633C1540.38 564.343 1539.75 562.877 1539.45 561.33C1539.14 559.783 1539.16 558.188 1539.5 556.648L1560.7 461.536L1436.16 569.238Z"/><path fill="#b0276c" d="M490.62 763.729L374.235 656.574L208.076 603.78L273.894 698.118L180.311 754.499L360.229 817.712L490.62 763.729Z"/><path fill="#000000" d="M846.985 882.925C845.873 882.918 844.767 882.753 843.701 882.434L270.649 708.971C267.773 708.1 265.36 706.122 263.943 703.473C262.525 700.823 262.218 697.719 263.089 694.843C263.96 691.967 265.938 689.555 268.587 688.137C271.237 686.719 274.341 686.412 277.217 687.283L850.269 860.747C852.881 861.525 855.124 863.219 856.587 865.517C858.051 867.815 858.637 870.564 858.238 873.259C857.839 875.955 856.481 878.416 854.414 880.191C852.347 881.966 849.71 882.937 846.985 882.925Z"/><path fill="#000000" d="M360.23 829.037C358.945 829.031 357.67 828.814 356.455 828.395L176.574 765.182C174.547 764.47 172.763 763.196 171.433 761.509C170.102 759.822 169.279 757.791 169.059 755.654C168.84 753.516 169.233 751.361 170.192 749.438C171.152 747.516 172.639 745.906 174.479 744.797L257.681 694.683L198.79 610.254C197.436 608.312 196.724 605.996 196.755 603.629C196.786 601.262 197.557 598.964 198.961 597.059C200.365 595.153 202.33 593.735 204.581 593.004C206.833 592.273 209.256 592.266 211.512 592.983L377.614 645.834C379.192 646.332 380.642 647.169 381.861 648.287L498.246 755.461C499.664 756.748 500.732 758.373 501.351 760.185C501.97 761.997 502.12 763.936 501.786 765.821C501.453 767.706 500.646 769.476 499.443 770.965C498.24 772.455 496.678 773.614 494.905 774.336L364.515 828.301C363.146 828.815 361.692 829.064 360.23 829.037ZM206.774 751.799L360.004 805.594L470.008 760.048L368.516 666.596L236.465 624.674L283.181 691.644C284.068 692.915 284.685 694.355 284.993 695.875C285.301 697.394 285.294 698.96 284.972 700.477C284.65 701.993 284.02 703.427 283.121 704.691C282.222 705.954 281.073 707.019 279.746 707.82L206.774 751.799Z"/><path fill="#b0276c" d="M1510.3 1357.3L1619.51 1470.87L1782.29 1533.35L1722.85 1435.57L1820.44 1385.12L1644.6 1311.47L1510.3 1357.3Z"/><path fill="#000000" d="M1722.8 1446.82C1721.46 1446.82 1720.14 1446.59 1718.89 1446.13L1156.95 1239.2C1154.14 1238.16 1151.85 1236.04 1150.59 1233.31C1149.33 1230.59 1149.2 1227.47 1150.24 1224.65C1151.28 1221.83 1153.4 1219.54 1156.13 1218.29C1158.85 1217.03 1161.97 1216.9 1164.79 1217.94L1726.76 1424.95C1729.21 1425.9 1731.25 1427.68 1732.53 1429.97C1733.81 1432.26 1734.26 1434.93 1733.79 1437.52C1733.32 1440.1 1731.97 1442.45 1729.96 1444.14C1727.96 1445.84 1725.42 1446.79 1722.8 1446.82Z"/><path fill="#000000" d="M1782.27 1544.67C1780.89 1544.67 1779.52 1544.42 1778.23 1543.92L1615.45 1481.44C1613.9 1480.84 1612.49 1479.91 1611.34 1478.7L1502.14 1365.15C1500.82 1363.78 1499.87 1362.09 1499.37 1360.25C1498.88 1358.41 1498.85 1356.48 1499.3 1354.62C1499.75 1352.77 1500.66 1351.06 1501.95 1349.66C1503.23 1348.25 1504.85 1347.19 1506.66 1346.58L1640.93 1300.75C1643.56 1299.86 1646.42 1299.95 1648.98 1301.01L1824.8 1374.63C1826.78 1375.46 1828.49 1376.84 1829.72 1378.61C1830.95 1380.38 1831.65 1382.46 1831.73 1384.61C1831.82 1386.76 1831.29 1388.89 1830.21 1390.76C1829.13 1392.62 1827.54 1394.13 1825.63 1395.12L1738.8 1439.99L1791.92 1527.4C1792.96 1529.12 1793.53 1531.08 1793.57 1533.1C1793.6 1535.11 1793.1 1537.09 1792.11 1538.84C1791.13 1540.6 1789.69 1542.05 1787.96 1543.07C1786.22 1544.08 1784.25 1544.62 1782.23 1544.62L1782.27 1544.67ZM1625.91 1461.19L1755.38 1510.89L1713.17 1441.44C1712.37 1440.12 1711.84 1438.64 1711.63 1437.1C1711.42 1435.57 1711.53 1434 1711.95 1432.51C1712.37 1431.01 1713.09 1429.62 1714.07 1428.42C1715.05 1427.22 1716.27 1426.23 1717.64 1425.51L1793.69 1386.2L1644.18 1323.57L1530.8 1362.26L1625.91 1461.19Z"/><path fill="#000000" d="M1712.23 924.243C1705.16 924.235 1698.24 922.169 1692.32 918.299C1686.41 914.429 1681.74 908.921 1678.9 902.446C1676.06 895.972 1675.16 888.811 1676.31 881.835C1677.47 874.859 1680.63 868.37 1685.41 863.159C1690.19 857.948 1696.38 854.24 1703.23 852.486C1710.08 850.732 1717.29 851.009 1723.99 853.282C1730.69 855.555 1736.57 859.727 1740.94 865.288C1745.31 870.85 1747.96 877.562 1748.58 884.605C1749.41 894.234 1746.39 903.8 1740.18 911.206C1733.97 918.612 1725.08 923.253 1715.45 924.111C1714.38 924.206 1713.36 924.243 1712.23 924.243ZM1712.23 873.997H1711.02C1708.3 874.235 1705.71 875.274 1703.59 876.982C1701.46 878.689 1699.88 880.99 1699.06 883.592C1698.24 886.194 1698.21 888.981 1698.97 891.601C1699.74 894.22 1701.26 896.555 1703.35 898.31C1705.44 900.064 1708 901.16 1710.71 901.458C1713.43 901.756 1716.17 901.243 1718.59 899.985C1721.01 898.726 1723 896.778 1724.31 894.386C1725.63 891.995 1726.2 889.268 1725.97 886.549C1725.65 883.128 1724.08 879.946 1721.54 877.625C1719.01 875.305 1715.7 874.011 1712.26 873.997H1712.23Z"/><path fill="#000000" d="M1079.83 314.781C1073.35 314.774 1067.02 312.883 1061.6 309.339C1056.18 305.795 1051.9 300.751 1049.3 294.822C1046.69 288.892 1045.87 282.332 1046.92 275.942C1047.98 269.552 1050.87 263.607 1055.25 258.832C1059.62 254.056 1065.29 250.657 1071.57 249.047C1077.84 247.438 1084.45 247.688 1090.58 249.767C1096.72 251.845 1102.11 255.663 1106.12 260.756C1110.12 265.848 1112.55 271.994 1113.13 278.446C1113.9 287.267 1111.13 296.034 1105.45 302.821C1099.76 309.608 1091.61 313.862 1082.79 314.648C1081.79 314.743 1080.81 314.781 1079.83 314.781ZM1079.83 270.631H1078.89C1077.48 270.744 1076.11 271.136 1074.85 271.784C1073.6 272.432 1072.49 273.324 1071.58 274.406C1070.42 275.756 1069.62 277.373 1069.24 279.11C1068.86 280.847 1068.91 282.652 1069.4 284.362C1069.89 286.073 1070.79 287.635 1072.03 288.91C1073.27 290.186 1074.81 291.134 1076.51 291.67C1078.2 292.205 1080 292.313 1081.75 291.981C1083.5 291.65 1085.14 290.891 1086.52 289.771C1087.9 288.652 1088.98 287.207 1089.67 285.567C1090.36 283.926 1090.63 282.141 1090.46 280.371C1090.21 277.727 1088.98 275.269 1087.03 273.471C1085.07 271.673 1082.52 270.661 1079.87 270.631H1079.83Z"/><path fill="#000000" d="M417.271 1543.09C407.929 1543.05 398.971 1539.36 392.316 1532.8C385.661 1526.25 381.837 1517.35 381.662 1508.01C381.488 1498.66 384.977 1489.63 391.382 1482.83C397.788 1476.03 406.601 1472 415.935 1471.62C425.27 1471.23 434.384 1474.52 441.327 1480.77C448.269 1487.02 452.489 1495.74 453.083 1505.06C453.677 1514.39 450.598 1523.57 444.504 1530.66C438.411 1537.74 429.787 1542.15 420.48 1542.95C419.404 1542.95 418.347 1543.09 417.271 1543.09ZM417.271 1494.01H416.101C414.366 1494.16 412.677 1494.66 411.133 1495.46C409.588 1496.27 408.217 1497.37 407.098 1498.7C405.979 1500.04 405.133 1501.58 404.61 1503.24C404.087 1504.9 403.896 1506.65 404.049 1508.38C404.201 1510.12 404.694 1511.81 405.499 1513.35C406.304 1514.9 407.405 1516.27 408.74 1517.39C410.074 1518.51 411.616 1519.35 413.278 1519.88C414.939 1520.4 416.687 1520.59 418.422 1520.44C420.156 1520.29 421.844 1519.81 423.387 1519C424.93 1518.2 426.297 1517.1 427.407 1515.76C429.042 1513.83 430.091 1511.47 430.428 1508.97C430.766 1506.47 430.378 1503.92 429.311 1501.63C428.245 1499.34 426.543 1497.4 424.409 1496.05C422.275 1494.69 419.798 1493.98 417.271 1493.99V1494.01Z"/><path fill="#9404fb" d="M482.692 547.701C473.181 548.114 463.895 544.732 456.877 538.298C449.86 531.865 445.685 522.907 445.272 513.396C444.859 503.884 448.241 494.598 454.675 487.58C461.109 480.563 470.066 476.388 479.578 475.975C489.062 475.142 498.488 478.11 505.784 484.227C513.079 490.343 517.646 499.108 518.48 508.592C519.313 518.076 516.345 527.502 510.228 534.798C504.112 542.093 495.347 546.66 485.863 547.494C484.75 547.664 483.693 547.701 482.692 547.701ZM482.692 498.626H481.503C478.905 498.871 476.437 499.88 474.411 501.526C472.386 503.172 470.893 505.382 470.122 507.875C469.35 510.369 469.335 513.035 470.077 515.537C470.819 518.039 472.286 520.266 474.292 521.936C476.298 523.605 478.754 524.643 481.35 524.919C483.945 525.194 486.564 524.695 488.876 523.483C491.188 522.272 493.09 520.403 494.34 518.112C495.591 515.821 496.136 513.211 495.905 510.611C495.625 507.304 494.111 504.222 491.662 501.981C489.214 499.739 486.012 498.501 482.692 498.512V498.626Z"/><path fill="#000000" d="M1327.13 1665.06C1321.09 1665.06 1315.14 1663.6 1309.78 1660.81C1304.42 1658.02 1299.81 1653.98 1296.35 1649.03C1292.88 1644.08 1290.66 1638.37 1289.87 1632.38C1289.08 1626.39 1289.75 1620.3 1291.82 1614.62C1293.89 1608.95 1297.29 1603.85 1301.75 1599.77C1306.2 1595.69 1311.57 1592.74 1317.41 1591.18C1323.25 1589.61 1329.37 1589.48 1335.27 1590.79C1341.17 1592.1 1346.67 1594.81 1351.29 1598.69C1356.99 1603.46 1361.14 1609.81 1363.23 1616.94C1365.32 1624.06 1365.25 1631.65 1363.02 1638.73C1360.8 1645.82 1356.53 1652.09 1350.75 1656.75C1344.96 1661.41 1337.93 1664.25 1330.53 1664.91C1329.34 1665 1328.3 1665.06 1327.13 1665.06ZM1327.13 1612.55C1326.68 1612.55 1326.25 1612.55 1325.79 1612.55C1323.35 1612.77 1321.01 1613.59 1318.96 1614.94C1316.92 1616.28 1315.23 1618.11 1314.06 1620.26C1312.88 1622.41 1312.25 1624.81 1312.23 1627.26C1312.2 1629.71 1312.78 1632.12 1313.91 1634.3C1315.04 1636.47 1316.68 1638.33 1318.7 1639.72C1320.72 1641.11 1323.04 1641.98 1325.48 1642.25C1327.91 1642.53 1330.37 1642.2 1332.65 1641.3C1334.93 1640.4 1336.95 1638.95 1338.53 1637.09C1339.8 1635.59 1340.76 1633.86 1341.35 1631.99C1341.94 1630.12 1342.15 1628.15 1341.97 1626.2C1341.64 1622.48 1339.94 1619.03 1337.19 1616.51C1334.45 1613.99 1330.86 1612.58 1327.13 1612.57V1612.55Z"/><path fill="#9404fb" d="M1350.45 488.395C1347.44 488.395 1344.56 487.202 1342.44 485.078C1340.31 482.954 1339.12 480.074 1339.12 477.07V440.358C1339.12 437.354 1340.31 434.474 1342.44 432.35C1344.56 430.226 1347.44 429.033 1350.45 429.033C1353.45 429.033 1356.33 430.226 1358.45 432.35C1360.58 434.474 1361.77 437.354 1361.77 440.358V477.07C1361.77 480.074 1360.58 482.954 1358.45 485.078C1356.33 487.202 1353.45 488.395 1350.45 488.395Z"/><path fill="#9404fb" d="M1368.81 470.332H1368.62L1331.93 469.747C1330.44 469.723 1328.97 469.407 1327.61 468.816C1326.24 468.225 1325.01 467.371 1323.97 466.303C1322.94 465.235 1322.12 463.973 1321.58 462.59C1321.03 461.207 1320.76 459.73 1320.78 458.242C1320.81 456.755 1321.12 455.287 1321.71 453.922C1322.3 452.557 1323.16 451.322 1324.23 450.287C1325.29 449.252 1326.56 448.437 1327.94 447.89C1329.32 447.343 1330.8 447.073 1332.29 447.097L1368.98 447.682C1371.98 447.704 1374.85 448.919 1376.96 451.059C1379.07 453.199 1380.24 456.088 1380.22 459.092C1380.2 462.095 1378.98 464.967 1376.84 467.075C1374.7 469.183 1371.81 470.355 1368.81 470.332Z"/><path fill="#9404fb" d="M758.706 1752.13C755.702 1752.13 752.822 1750.94 750.698 1748.81C748.574 1746.69 747.381 1743.81 747.381 1740.81V1704.09C747.381 1701.09 748.574 1698.21 750.698 1696.09C752.822 1693.96 755.702 1692.77 758.706 1692.77C761.71 1692.77 764.59 1693.96 766.714 1696.09C768.838 1698.21 770.031 1701.09 770.031 1704.09V1740.81C770.031 1743.81 768.838 1746.69 766.714 1748.81C764.59 1750.94 761.71 1752.13 758.706 1752.13Z"/><path fill="#9404fb" d="M777.147 1734.07H776.959L740.246 1733.48C737.243 1733.43 734.382 1732.19 732.294 1730.03C730.205 1727.87 729.06 1724.97 729.11 1721.97C729.16 1718.96 730.401 1716.1 732.561 1714.01C734.72 1711.93 737.62 1710.78 740.624 1710.83L777.317 1711.42C778.805 1711.43 780.275 1711.73 781.645 1712.31C783.015 1712.89 784.257 1713.73 785.301 1714.79C786.344 1715.85 787.169 1717.11 787.728 1718.49C788.287 1719.86 788.569 1721.34 788.558 1722.83C788.546 1724.31 788.242 1725.78 787.663 1727.15C787.084 1728.52 786.24 1729.77 785.18 1730.81C784.121 1731.85 782.866 1732.68 781.488 1733.24C780.11 1733.8 778.635 1734.08 777.147 1734.07Z"/><path fill="#9404fb" d="M417.346 1034.17C414.342 1034.17 411.461 1032.98 409.338 1030.86C407.214 1028.73 406.021 1025.85 406.021 1022.85V986.154C406.021 983.15 407.214 980.27 409.338 978.146C411.461 976.022 414.342 974.829 417.346 974.829C420.349 974.829 423.23 976.022 425.354 978.146C427.478 980.27 428.671 983.15 428.671 986.154V1022.85C428.671 1025.85 427.478 1028.73 425.354 1030.86C423.23 1032.98 420.349 1034.17 417.346 1034.17Z"/><path fill="#9404fb" d="M435.694 1016.13H435.505L398.811 1015.52C395.808 1015.48 392.946 1014.24 390.856 1012.08C388.766 1009.92 387.618 1007.02 387.665 1004.02C387.713 1001.02 388.952 998.154 391.109 996.064C393.267 993.974 396.166 992.826 399.17 992.874L435.863 993.478C438.867 993.501 441.739 994.715 443.847 996.855C445.955 998.995 447.126 1001.88 447.104 1004.89C447.081 1007.89 445.866 1010.76 443.727 1012.87C441.587 1014.98 438.697 1016.15 435.694 1016.13Z"/><path fill="#9404fb" d="M1705.49 1218.17C1702.48 1218.17 1699.6 1216.98 1697.48 1214.85C1695.36 1212.73 1694.16 1209.85 1694.16 1206.84V1170.13C1694.16 1167.13 1695.36 1164.25 1697.48 1162.12C1699.6 1160 1702.48 1158.81 1705.49 1158.81C1708.49 1158.81 1711.37 1160 1713.5 1162.12C1715.62 1164.25 1716.81 1167.13 1716.81 1170.13V1206.84C1716.81 1209.85 1715.62 1212.73 1713.5 1214.85C1711.37 1216.98 1708.49 1218.17 1705.49 1218.17Z"/><path fill="#9404fb" d="M1723.84 1200.11H1723.67L1686.93 1199.56C1685.45 1199.53 1683.98 1199.22 1682.61 1198.63C1681.25 1198.04 1680.01 1197.18 1678.98 1196.11C1677.94 1195.05 1677.13 1193.78 1676.58 1192.4C1676.03 1191.02 1675.76 1189.54 1675.79 1188.05C1675.81 1186.57 1676.13 1185.1 1676.72 1183.73C1677.31 1182.37 1678.16 1181.13 1679.23 1180.1C1680.3 1179.06 1681.56 1178.25 1682.95 1177.7C1684.33 1177.15 1685.81 1176.88 1687.29 1176.91L1724.01 1177.49C1727.01 1177.52 1729.88 1178.74 1731.99 1180.88C1734.09 1183.02 1735.26 1185.91 1735.24 1188.91C1735.21 1191.92 1733.99 1194.79 1731.85 1196.89C1729.71 1199 1726.82 1200.17 1723.82 1200.14L1723.84 1200.11Z"/></svg>