<svg xmlns="http://www.w3.org/2000/svg" enable-background="new 0 0 370 370" viewBox="43.881 54.392 282.238 261.217"><path fill="#591757" d="M256.3826294,258.0289612c-0.3305359,5.4697266-1.8108063,9.8790894-2.4419403,15.3189697     c-2.8197937,24.4452209-2.578598,25.3533325-4.1173248,27.4185181c-1.111969,1.4728394-2.9352875,2.2843323-4.7685089,2.53479     c-2.1137543,0.300354-4.0171661-0.2206116-6.070755-0.4006042c-2.214035-0.1805115-4.5581818,0.1403809-6.8021698,0.0298157     c-3.9971161-0.1902771-7.9942322-0.7513428-12.0013733-0.7513428h-13.7345734     c5.6745605-2.588501,5.026474-7.5177917-2.0836639-8.6853943c11.2371521-2.1005249,9.7987671-9.0960388-0.4507599-10.0780334     c10.6455231-1.8630981,8.7603302-7.1547546,6.1207733-8.8355713c-5.9670258-3.7941589-20.1152954,0.9545593-18.3926544-3.1956482     c0.9620819-2.1382141,6.682724-5.5379944,6.1608887-8.3649902c-0.8270111-4.5195313-12.5184479-4.8061829-19.0740509,6.4812622     c-2.4537201,4.2946167-3.1118317,4.0500793-8.6152039,4.5481567c-3.0365753,0.45578-30.0913239,1.637207-43.7481613,0.5610657     c-5.6784058-0.2999573-8.2280579-1.93573-9.1060791-8.8854675c-2.7853851-21.6193542,3.7706909-24.6713715,0.9616699-24.4136505     c-13.7397842,1.5713654-28.6110077,5.9726105-41.724411,4.2174835c-1.4787369-0.2038727-2.5203247-0.0309906-2.1338043-2.1038513     c4.2107162-24.0528717,30.2192078-53.4342194,67.600502-63.1726837c2.4844055-0.6412811,6.4714966-2.5445709,8.3849335-0.0802155     c0.5510406,0.7112274,0.9116669,1.5427856,1.3523865,2.3342285c2.223938,3.9870911,6.6819611,6.6216736,11.2500458,6.6417389     c4.5682068,0.02005,9.0561829-2.5744171,11.3101959-6.5414581c0.7112274-1.2424469,1.2121277-2.6047363,2.0737762-3.7366333     c1.9935455-2.6248016,5.0089264-1.7433472,7.8539581-1.412674c14.1452179,1.6528473,28.1702271,5.8806,39.971283,13.8347168     c16.8901062,11.4002075,26.6374664,30.6645355,30.0435638,50.309906     C255.0426331,246.4797211,256.6832275,253.0704193,256.3826294,258.0289612z"/><path fill="#d121bc" d="M75.6692581,171.0782013c4.1791992,2.9549866,8.2317123,5.9803925,12.4039459,8.942215     c0.1970062,0.1340332,0.4714203,0.1056519,0.6332092-0.0772858c5.5370941-6.296875,11.2782898-12.1011658,17.2375183-17.8286591     l7.2820282,7.2820282c0.4431686,0.4505005,1.2030716,0.2254944,1.336853-0.3937683     c1.4811554-6.9171143,3.1300964-14.064621,4.1932678-21.2561646c0.0831528-0.5625153,0.1707153-1.1245575,0.2462921-1.6875763     c0.0703125-0.520462-0.3870468-0.963623-0.9076309-0.8931885c-8.1192093,1.1045074-15.0143127,2.0612946-23.6260986,3.7214813     c-0.6261215,0.1198425-0.8653183,0.8936768-0.4150467,1.3441925l1.1976852,1.1964569l5.5988541,5.5929871     c-0.34021,0.3228455-0.6766205,0.642746-1.0142593,0.9631348c-4.2157669,4.005188-8.2728043,7.8729248-13.0150299,12.3413391     c-0.175972,0.1687622-0.464325,0.1761017-0.6472702,0.0068512l-9.4912872-8.6046906     c-0.1758499-0.1614227-0.4572372-0.1614227-0.6332092,0l-19.1794548,17.1673279     c-0.3940125,0.3590393,0.0070915,0.9988403,0.4996719,0.7948608c0.0146751-0.0058594,0.0298386-0.0122223,0.0446358-0.0185852     c5.995182-2.4516296,12.2812958-5.3929138,17.7417145-8.6213226     C75.3174286,170.958847,75.5214081,170.9656982,75.6692581,171.0782013z"/><path d="M178.3759918,118.6449966c0.4761047,4.5496445,2.7098083,9.0723038,7.1640625,12.4892654     c1.3730469,1.0537109,2.6704102,2.0488281,2.909668,3.515625c0.2797852,1.7167969-1.0424805,3.3515625-2.5131836,4.8613281     c-0.6938324,0.71492,0.3856201,1.758667,1.0771484,1.0488281c1.7446289-1.7929688,3.3056641-3.7783203,2.9194336-6.1523438     c-0.3354492-2.0546875-2.0053711-3.3349609-3.4785156-4.4658203c-4.0566559-3.1103745-6.1395874-7.2051239-6.5844727-11.4531326     C179.7680054,117.4933319,178.2721558,117.6602859,178.3759918,118.6449966z" fill="#000000"/><path d="M166.435318,124.8310318c-1.0605469,0.515625-1.2285156,2.4814453-0.375,4.3920975     c0.8533936,1.9101563,2.4050293,3.0410156,3.4656982,2.5258789c1.0605469-0.5151367,1.2285156-2.4814453,0.3751221-4.3920975     C169.0476227,125.4467545,167.4959869,124.3158951,166.435318,124.8310318z" fill="#000000"/><path d="M166.9629059,120.5365982c-3.5995789-0.7600784-7.0789032,1.8856812-7.4487305,5.6923828     c-0.0961151,0.9915314,1.3994598,1.130722,1.4960938,0.1445313c0.283844-2.9213562,2.9281921-4.9437561,5.6430664-4.3662109     c0.4042969,0.0810547,0.8041992-0.1738281,0.8901367-0.5800781     C167.6289215,121.0209732,167.3691559,120.6225357,166.9629059,120.5365982z" fill="#000000"/><path d="M190.9829254,120.4018326c-1.1791992,0.0078125-2.1784668,1.7089844-2.2322998,3.8007813     s0.8585205,3.78125,2.0377197,3.7734375c1.1790771-0.0073242,2.1784668-1.7089844,2.2321777-3.8007813     C193.074234,122.0839615,192.1621246,120.3945084,190.9829254,120.4018326z" fill="#000000"/><path d="M193.3110504,116.7563248c-2.905426-2.2283096-7.1881714-1.372261-9.175293,1.9228516     c-0.5139771,0.8523254,0.775116,1.6257706,1.2871094,0.7753906c1.5101013-2.5061798,4.7580872-3.2034607,6.9741211-1.5068359     C193.1809387,118.5534668,194.1027985,117.3615799,193.3110504,116.7563248z" fill="#000000"/><path d="M173.8393707,146.0336761c-0.1622772-0.9806061-1.6450653-0.7344666-1.4824219,0.2460938     c0.6235046,3.746109,4.1088104,6.8740234,8.0541992,6.8740234c3.3896484,0,6.6713867-2.2578125,7.8129883-5.46875     c0.1391602-0.3916016-0.0654297-0.8212891-0.456543-0.9599609c-0.3886719-0.1337891-0.8198242,0.0654297-0.9594727,0.4560547     c-0.9775391,2.7509766-4.0249023,4.6914063-6.9287109,4.4472656     C176.9716949,151.3705902,174.3183746,148.9125824,173.8393707,146.0336761z" fill="#000000"/><path d="M142.5092926,142.2768402c-0.9370117,0-1.8862305-0.4970703-2.4194336-1.2666016     c-0.5661469-0.8164825-1.8018951,0.0384216-1.2353516,0.8554688c0.8178711,1.1806641,2.2172852,1.9130859,3.6542969,1.9130859     c1.0007172,0.0238953,1.0061035-1.5019531,0.0058594-1.5019531     C142.5136871,142.2758636,142.5112457,142.2768402,142.5092926,142.2768402z" fill="#000000"/><path d="M130.0483551,117.1645279c-2.8349609,1.96875-4.8862305,5.0751953-5.5522461,8.4638672     c-1.6170425,8.223259,4.9324493,14.8341141,8.1948242,13.8212967     c-1.4704742,6.4290314,5.2829437,13.6592712,15.5942383,10.3251953     c-0.3012848,10.936554,0.3174133,26.4433899,0.6279297,37.2080078c0.0287476,0.9992828,1.5313568,0.9566345,1.5019531-0.0429688     c-0.3151398-10.9305725-0.9711304-27.2674408-0.5942383-38.2148438c0.0185852-0.5328522-0.5131226-0.9197235-1.0214844-0.7265625     c-2.2299805,0.8613281-5.5786133,1.671875-8.8598633,0.6396484c-2.9614258-0.9316406-5.3105469-3.4208984-5.8447266-6.1953125     c-0.5791016-3.0039063,1.1806641-6.2597656,3.765625-6.9677734c3.3642578-0.9228516,6.6489258,2.0898438,8.8134766,4.7773438     c0.9303284,1.1581421,3.8890533,2.0508575,5.1894531-0.2382813c1.9733429-3.4655609-1.7230072-11.649231-0.6445313-17.1084061     c2.0362244-10.3167419,14.5058746-11.3446579,22.8813477-11.9638672     c10.0355682-0.5684967,13.0918274-1.2694397,18.0302734-4.7758789     c4.7075348,14.4713364,8.3843994,28.6565628,5.3417969,43.8198318     c-1.1010742,5.4873047-2.8232422,11.5800781-7.2504883,15.1523438     c-6.3269653,5.1056061-16.9781494,6.569046-28.9619141-0.3710938c-0.864212-0.4938354-1.6115723,0.8031158-0.7529297,1.3007813     c4.9667969,2.8758087,10.3672028,4.7716522,16.0378418,4.8842773c0.3905487,4.2831268,0.2799225,6.3711548,0.7150879,10.7543945     c0.098053,0.9854889,1.5938568,0.8459778,1.4951172-0.1484375c-0.4212494-4.2434692-0.3243408-6.3915253-0.7015381-10.6035156     c4.9399414-0.1933594,9.6228027-1.8310547,13.1116943-4.6464844c4.7998047-3.8740234,6.6264648-10.2753906,7.7807617-16.0273438     c1.1943359-5.953125,1.4316406-12.4238281,0.7050781-19.2324219c-1.0320892-9.6777954-3.4528809-17.2015305-6.2421875-25.8120193     c0.9382324-0.6954727,1.5174713-1.1249161,2.015625-1.4819336c8.0024872-5.7586899,11.6623535-15.3909454,10.0107422-24.6181641     c-2.7137146-15.1573181-17.7858276-16.9369583-25.527832-5.2880859     c-1.9018555,2.8623047-3.4516602,6.3554688-4.4672852,8.9384766c-4.3580017-10.2274399-17.2670746-12.484108-24.890625-5.2441406     c-3.390625,3.2216797-5.4482422,8.8720703-5.1635742,13.6738281     c-9.0568848-7.0085068-22.6619263,0.1049957-21.0966797,13.8896484     C124.8188629,109.7729263,127.5512848,113.9467545,130.0483551,117.1645279z M193.062149,75.0546646     c-0.2906494-0.3012695-0.2805176-0.7714844,0.0200195-1.0620117c0.3006592-0.2807617,0.7813721-0.2705078,1.0618896,0.0297852     c5.2373505,5.4942017,4.9275055,14.0173035-0.2503662,19.1743164c-0.6978607,0.6955948-1.7683411-0.3555679-1.0618896-1.0620117     C197.5913391,87.3964386,197.575531,79.7956161,193.062149,75.0546646z" fill="#000000"/><path d="M262.8798828,213.585434c6.571228,1.2840118,10.7173767,7.9186401,8.9775391,14.390625     c-0.2567444,0.9593048,1.1934204,1.3516388,1.4511719,0.390625c1.962616-7.3074799-2.7118835-14.8047333-10.1396484-16.2558594     C262.1863403,211.9270172,261.9094543,213.3969269,262.8798828,213.585434z" fill="#000000"/><path d="M251.1152496,160.0659027c3.5156403-1.3364563,3.6276855-5.6647949,0.8007813-7.3457031     c-0.8956757-0.5346985-2.1853638-0.7442932-2.6230469-1.3984375c-0.4077301-0.6116028-0.4148102-1.921524-1.5048828-2.5126953     c-1.0341492-0.5616913-2.6238098-0.1660461-3.3876953,1.9140625     C242.8600922,154.9196167,246.0974274,161.976593,251.1152496,160.0659027z M246.4199371,150.2631683     c0.2060547-0.1621094,0.4921875-0.2216797,0.6513672-0.1337891c0.40242,0.2187805,0.4555359,1.2520905,0.9716797,2.0273438     c0.7840576,1.1703491,2.2057037,1.3202515,3.1054688,1.8544922c0.8564453,0.5097656,1.3769531,1.5957031,1.2353516,2.5830078     c-0.283371,1.9942322-3.0818787,2.9860535-4.5888672,1.7099609     C245.0497742,155.9811249,245.0532379,151.3430176,246.4199371,150.2631683z" fill="#000000"/><path d="M298.3183594,146.3500824c-0.0212402-0.015625-0.0463867-0.019043-0.0686035-0.0322266     c1.2002258-5.5146332,1.0078735-11.2494812-0.3774414-16.4521484     c8.7285156-9.5419998,13.9404297-17.7412186,11.3269043-20.912117     c-2.7900391-3.3862305-12.4238281,1.1352539-20.1018066,5.5844727     c-13.889679-14.2481918-36.8163147-13.7806549-50.2336273,0.4892578     c-0.0092773-0.003418-0.0153809-0.0112305-0.0249023-0.0141602c-8.140625-2.7255859-18.2744141-5.1728516-20.3173828-1.3564453     c-1.7404785,3.2519531,3.4992676,9.2373047,12.1340332,15.9526443     c-2.7859802,9.9715576-1.0280914,20.6384888,4.9291992,29.1323242     c-5.6898193,6.5683594-11.7768555,14.9824219-9.0241699,18.3222656c3.4777222,4.22258,17.6315308-4.0505371,22.2730713-6.8671875     c4.0273438,1.980957,8.4461517,3.1767578,13.054184,3.4765625c-0.0061646,0.1044159,1.0323486,28.5701904,0.5516357,31.1181641     c-0.4024963,2.0549622-1.4935913,2.1694336-2.2724609,1.2060547c-0.3613586-0.4334259-0.5897217-1.0269165-0.8769531-1.7158203     c-2.2363892-5.2694397-7.0326538-9.6194305-9.8085785-10.1416016c-1.2705078-0.2412109-2.5087891,0.1367188-3.2392578,0.9736328     c-3.4274597,3.9185791,6.2596588,13.5012665,7.1308594,23.3525391     c0.4784851,4.5767517,0.7714386,10.1499786,5.1796722,12.2617188c1.1385193,0.5432129,1.23526,0.9694061,0.9931641,2.7490234     c-0.0915833,0.7603149-3.4946899,25.1860809-4.0009613,28.8232269l-23.5599365,39.6118164l-23.3973389-0.1025391     c3.2807617-2.3721924,3.5729675-6.2287598-1.2351074-8.2514648c3.4888916-1.0436096,6.2229919-2.9670715,5.3535156-6.5029297     c-0.375-1.5371094-2.3271484-2.8994141-5.1049805-3.7099609c0.1831055-0.0566406,0.3657227-0.1162109,0.5483398-0.1796875     c6.4268188-2.1749878,5.163559-7.3850708,2.2861328-9.2197266c-2.3885651-1.5183411-5.6486206-1.3145142-8.5317383-1.5185547     c-5.5985718-0.3952332-6.1686249,0.1873779-8.7231445-0.0185547c-2.0311432-0.1568298-0.7312927-0.9994507,3.6611328-5.5810547     c0.9584961-0.9667969,2.0449219-2.0625,1.6982422-3.9443359c-0.7641754-4.1655884-7.0906219-4.0006409-10.859375-2.5478516     c-3.6953125,1.4384766-7.1958008,4.6416016-9.6064453,8.7929688c-1.7987061,2.8560791-1.7385406,3.7675171-6.8520508,4.0878906     c-13.9401093,0.8807983-17.1087341,0.9894104-40.6400146,1.3359375     c-1.1590576-8.4248047-8.1304932-30.2206879-10.6705322-40.7949066     c-0.0400391,1.9331055-0.0700684,3.8569336-0.1101074,5.7900391c-0.0300293,1.5629883,0.4107666,3.2460938,0.1604004,4.7988281     c-0.2070313,1.2929688-1.526001,1.7172852-2.7263184,2.0600586c-0.2385864-0.7996826-1.3778687-0.6512146-1.4665527,0.1303711     c-0.8525391,7.5537109-0.9604492,13.8749847-0.3300781,19.3271332c0.3168945,2.6298828,1.1577148,9.6152344,6.6113281,10.0166016     c6.162384,0.4527283,31.7158203-0.0602722,49.2661133-1.1640625c5.1837311-0.3263245,6.0484009-1.280304,8.0600586-4.8378906     c2.2070313-3.8007813,5.5151367-6.8447266,8.847168-8.1416016c2.6588898-1.0263977,8.2900238-1.5712891,8.8383789,1.4189453     c0.2358856,1.2808838-0.6057281,1.8953247-1.6489258,2.9824219c-3.9307556,4.1307373-4.1156921,4.1749573-4.4672852,4.9580078     c-0.2978516,0.7177734-0.2226563,1.4912109,0.1972656,2.0205078c0.5463867,0.6826172,1.4399414,0.7519531,1.918457,0.7900391     c1.1357422,0.0927734,2.2470703,0.0214844,3.3222656-0.0488281c4.1602936-0.2657776,5.7409668,0.247467,8.8066406,0.2285156     c2.8164368,0.2385559,5.6317291,0.8112183,6.0576172,3.6220703c0.5019531,3.3041077-4.1672974,4.389801-7.4658203,4.9667969     h-9.7421875c-0.9936523,0-0.9949799,1.5019531,0,1.5019531c0.1043243-0.0000305,9.983139-0.0024719,9.8820801-0.0024414     c4.6154785,0.4599609,7.0620117,2.1635742,7.3239746,3.237793c0.8283234,3.3603821-3.2263184,4.585907-6.6503906,5.265625     h-9.6879883c-0.9936523,0-0.9949799,1.5019531,0,1.5019531h9.1773682     c0.0506592,0.0205078,0.0992432,0.0454102,0.1551514,0.0546875c3.1044922,0.5107422,4.7480469,1.9111328,5.0566406,2.6787109     c0.9619141,2.3583984-1.921875,3.9931641-3.0341797,4.5224609c-11.404541,0.5178223-61.5472565,0.1185608-113.6430664,0.2011719     c-8.6606674-5.8233948-12.2632523-15.5103455-12.9814453-25.9765625     c-0.7399521-10.8012085-0.135788-18.0425415,0.8100586-28.0585785c0.040123-0.4243317-0.2907715-0.8579102-0.8139648-0.8022461     l0.0944824-1.0219727l-5.6617432-1.0356445l4.6121826,5.6376953c-0.7250977,7.8715668-1.2399902,15.1713715-0.5400391,25.3842621     c0.9547806,13.9103394,6.5411301,22.4293213,13.8393555,27.2519531c0.1225586,0.0810547,0.2666016,0.1240234,0.4140625,0.1240234     c0.0004883,0,0.0009766,0,0.0014648,0c71.225769-0.1337891,212.6949005,0.5947266,212.585434,0.5947266     c0.9918518,0,0.9947815-1.4996033,0.0029297-1.5019531l-11.2952881-0.0498047     c-0.3114014-5.9746704-9.0394897-64.2371368-9.0220947-68.0273285c0.0048828-0.9658203,0.1660156-1.4414063,0.6904297-2.0371094     c1.7802429-2.0180359,3.9224854-8.6472015,4.6643066-11.2050781c2.4332275-1.688385,6.0540771-7.7036285,6.7409668-13.0429688     c0.632843-4.7229919-2.5081177-6.4034576-5.3564453-5.0014648c0.3708191-2.3190155,0.3144531-4.8777161-1.5341797-6.3774414     c-1.4265137-1.1733398-3.4455566-1.0625-4.9547119-0.3330078c0.0083008-1.9799805-0.5570068-3.465332-1.7093506-4.4101563     c-1.7041016-1.4003906-4.0898438-0.9648438-5.5830078,0.0292969c-1.1046143,0.7358398-1.9023438,1.7578125-2.5657959,2.8481445     c-0.0074768-0.1007843-1.5032654-20.5231628-1.8309326-22.0615234c6.754425-1.8032227,12.5968323-5.500351,17.0620117-10.5385742     c5.0797424,1.8166351,20.1149597,6.9032288,22.6520996,2.1601563     C315.1796875,160.0024261,306.2255859,152.1772308,298.3183594,146.3500824z M289.8193359,160.2451019     c-3.2130127-1.1674805-6.7021484-2.5629883-10.4169922-4.1821289c2.7332153-3.5241394,8.9905396-0.0665283,10.3183594-10.2128906     c0.2986755-2.2896729,0.4442444-4.7685242,1.6816406-6.5869141c0.754364-1.108963,2.250946-2.2363281,3.5820313-2.2363281     c0.5322266,0,1.0966797,0.1474609,1.7314453,0.4443359c0.3317871,0.1552734,0.5378418,0.4174805,0.8217773,0.7817383     C297.9281006,145.0923767,295.1417542,153.8582001,289.8193359,160.2451019z M283.4406738,166.1435394     c-2.9418945-2.1581879-5.9407043-5.3046722-4.748291-8.7587891c3.4654541,1.5161133,6.848877,2.8925781,10.059082,4.081543     C287.2055359,163.1483917,285.6142883,164.6071472,283.4406738,166.1435394z M297.4091797,136.1430511     c-1.3529663-0.6846313-2.8453064-0.8564301-4.2636719-0.2109375c-4.0567932,1.8475189-4.4334106,5.7553864-4.9150391,9.7226563     c-1.249115,9.5517883-6.8986816,4.8912201-10.2185059,9.7998047c-1.6804199-0.7470703-3.4084473-1.5429688-5.1708984-2.3779297     c8.1573181-6.59021,16.7590332-14.362915,23.793457-21.8735352     C297.0129395,132.8159027,297.274292,134.4633636,297.4091797,136.1430511z M233.5501862,151.9990082     c5.1807404-0.9560547,8.6052246-6.5700684,7.822876-11.746582c-0.1712494-1.1173401-0.4860229-2.3224335-0.5302734-3.3935547     c8.5600586,5.6481476,18.6280365,11.4099579,29.2009125,16.5341797     c-7.7922363,6.1928711-15.0485687,11.2607422-21.2912445,15.0786133     C241.8006287,164.8303375,236.4827423,158.8853149,233.5501862,151.9990082z M231.9433746,130.5971527     c2.2901611,1.7338867,4.7885742,3.5078125,7.4412842,5.2910156c-0.1950073,1.5359497,0.2966766,3.2277679,0.5020752,4.5898438     c0.6962891,4.5982971-2.4524994,9.4788055-6.9136963,10.0996094     C230.64534,144.3766785,230.147171,137.4964905,231.9433746,130.5971527z M243.9624176,112.4516373     c1.1782227,1.0068359,2.4404297,2.3862305,3.7583008,4.1083984c2.140625,2.8388672,3.1787109,5.9501953,2.921875,8.7636719     c-0.3085938,3.2138748-2.5234375,6.0302811-5.2666016,6.6972733c-1.9537354,0.478363-4.2897339,0.2504272-5.5141602,2.3798828     c-2.7424316-1.859375-5.2440186-3.6586914-7.4735107-5.3696289     C234.4407959,122.4592056,238.4551697,116.661438,243.9624176,112.4516373z M241.1179352,135.2485199     c0.7644196-1.5246124,2.7585449-1.3120575,4.614502-1.7675781c3.3984375-0.8261719,6.0322266-4.1210938,6.40625-8.0156326     c-0.0209045-0.1637344,0.7479248-4.5517426-3.2216797-9.8134766c-1.2883301-1.6845703-2.5319824-3.046875-3.71521-4.0986328     c3.8891602-2.7001953,8.2954102-4.5458984,12.8929291-5.390625c-0.8846436,2.2552338,0.2191772,5.4218445,4.4462891,7.2304688     c0.9599609,0.4082031,1.6025391,0.7246094,1.7705078,1.3515625c0.2176819,0.8524399-0.6158752,1.7196884-1.6943359,2.8916016     c-2.6738281,2.9023438-3.5888672,7.2099609-2.3320313,10.9775467c1.9567871,5.7953949,8.6226501,8.7625732,12.6494141,7.0166016     c1.4824219-0.6357422,2.5546875-1.9873047,2.7304688-3.4462891c0.2338257-1.9917145-1.1529846-3.8660736-0.5371094-5.1943436     c0.5527344-1.1826172,2.4335938-1.2597656,3.9169922-0.7353516c3.2712402,1.1639481,7.1039429,3.9423904,10.7988281-3.4511719     c0.6206055-1.2148438,1.0823975-2.2905273,1.4348145-3.3056641c2.2097168,3.0546875,3.8608398,6.4072266,4.9058838,9.9726639     c-7.4129639,8.0474854-16.3562622,16.0581818-24.8470459,22.8891602     C261.354187,147.5456696,250.5301361,141.5198669,241.1179352,135.2485199z M290.1746826,118.0239029     c-0.3380127,1.2250977-0.8731689,2.5380859-1.6717529,4.1015625c-0.8066406,1.6132813-2.1083984,3.7929688-4.0849609,4.0908203     c-1.5583496,0.2292557-3.140625-0.7668381-4.8720703-1.3779297c-2.1601563-0.7675781-4.8417969-0.4912109-5.7802734,1.5175781     c-0.9236755,1.9918442,0.5977173,4.0284805,0.4072266,5.6513748c-0.1123047,0.9335938-0.8310547,1.8134766-1.8330078,2.2431641     c-3.0889893,1.3402557-8.9046021-1.0019073-10.6298828-6.1152344c-1.0693359-3.2031326-0.2607422-7.0136795,2.0185547-9.4882889     c1.1758728-1.2770462,2.4723816-2.5793533,2.0361328-4.2832031c-0.726532-2.7135162-4.5899353-1.9494934-6.0908203-5.2558594     c-0.5673828-1.2421875-0.4628906-2.3041992,0.3220215-3.2412109     C271.1286011,104.3773956,282.6768494,108.689949,290.1746826,118.0239029z M308.0390625,109.9086685     c1.6760254,2.0336914-2.2873535,8.9438477-10.6824951,18.2763748c-1.5137634-4.694725-3.9099426-8.8260422-7.2052002-12.5170975     C301.4432373,109.1669693,306.8027344,108.4096451,308.0390625,109.9086685z M219.8457184,114.3656998     c0.8913574-1.6625977,6.0882568-2.0136719,17.9294434,1.8833008c-2.9661865,3.4672852-5.2189941,7.4868164-6.6450195,11.8042068     C222.8935699,121.5600357,218.7229156,116.4643326,219.8457184,114.3656998z M227.7207184,176.1088715     c-1.2169189-1.4760742,0.4841309-6.4902344,8.7722168-16.1162109c2.9553223,3.8979492,6.6228027,7.0698242,10.7658691,9.3808594     C236.7336578,175.6352386,229.374527,178.1118011,227.7207184,176.1088715z M271.5480957,154.1161957     c1.9364014,0.9233398,3.8665771,1.8149414,5.776001,2.6655273c-1.4888916,4.0508575,1.3652039,7.5900879,4.7874756,10.2402344     c-10.0377502,6.4252472-22.033905,6.6732788-31.7530365,2.2368164     C257.0756836,165.0732269,264.4599609,159.7714691,271.5480957,154.1161957z M294.4941406,204.281723     c1.5513611,1.2876282,0.6236572,4.5466614,0.0400391,6.4677734c-0.7949219,2.6396484-2.0986328,5.1699219-3.7685547,7.3173828     c-0.5488281,0.7011719-1.1611328,1.4072266-1.9228516,1.828125c-0.7226563,0.3945313-1.7373047,0.5478516-2.1816406,0.1201172     c-0.4277344-0.4150391-0.3349609-1.3066406-0.2568359-2.0683594c0.1340332-1.2739258,0.3552246-2.5449219,0.6520996-3.78125     c1.6620483-2.6396637,2.9722595-5.6249084,3.8464355-8.9941406     C292.2222595,203.6753082,293.7513123,203.6725159,294.4941406,204.281723z M288.9199219,197.6547699     c1.0078125,0.8183594,1.3681641,2.3505859,1.0712891,4.5595703c-0.1647339,1.2702637-0.5196228,2.5005493-0.4941406,2.3984375     c-1.3256226,5.3113403-3.6736755,8.6403351-3.8232422,8.9394531c-0.949646,1.4837341-2.5466919,3.7776031-4.1054688,4.6201172     c-0.9853516,0.5410156-2.3984375,0.7646484-3.0722656,0.1181641c-0.6357422-0.6142578-0.5039063-1.8466797-0.3964844-2.8486328     c0.1112061-1.0703125,0.2885742-2.2177734,0.5327148-3.4863281c0.5331116-0.8356628,3.3866272-4.1230621,5.1791992-10.0351563     c0.3503418-1.152832,0.7268066-2.4858398,0.9421387-3.8652344     C286.2187195,196.8375244,288.0027161,196.9003906,288.9199219,197.6547699z M280.6044922,192.3627777     c2.4650574,0,3.0667725,2.4947052,2.7226563,5.1142578c-0.9387512,7.164856-5.8656921,14.5534058-8.4228516,15.9599609     c-0.9833984,0.5429688-2.3974609,0.7675781-3.0761719,0.1103516c-0.6289063-0.6064453-0.4990234-1.8310547-0.3916016-2.8476563     c0.5214844-4.9179688,1.9345703-9.6425781,4.2011719-14.0419922     C276.7346191,194.5312958,278.1957397,192.3627777,280.6044922,192.3627777z M273.7478027,197.1083832     c-2.0244141,4.2387695-3.3093262,8.7514648-3.8093262,13.4643555c-0.1308594,1.2412109-0.3105469,2.9404297,0.8466797,4.0566406     c1.2336121,1.189743,3.3422852,0.9495392,4.84375,0.1240234c0.420166-0.230957,0.7950439-0.5146484,1.151001-0.8144531     c-0.2770691,1.9566345-0.6698914,4.1355133,0.6732178,5.4335938c1.2345581,1.1865082,3.3452454,0.938385,4.8349609,0.1191406     c1.1296387-0.6098633,2.0031738-1.5493164,2.7275391-2.4516602c-0.1832886,1.4122467-0.4758606,3.0085144,0.6015625,4.0561523     c0.5393982,0.5182495,1.3928223,0.8197327,2.5961914,0.5913086c-0.631897,2.0422058-2.5539856,7.8132477-3.9848633,9.4379883     c-0.8808594,0.9990234-1.0605469,1.8974609-1.0654297,3.0224609c-0.0190125,3.9363251,8.6777954,61.9750824,9.0209961,68.0287933     l-40.6467133-0.1787109c5.6958466-40.930481,9.4002838-67.5133667,9.498764-68.3295746     c0.2967529-2.1808624,0.0802612-3.3831329-1.8359375-4.296875c-3.6675415-1.7398987-3.9717255-7.2368469-4.3310394-11.0380859     c-0.8443146-9.5491333-9.8011475-19.5937195-7.4951172-22.2314453c0.3769531-0.4326172,1.09375-0.6240234,1.8291016-0.4853516     c1.8326721,0.3447418,6.4312744,3.8971558,8.7040863,9.2529297c0.31604,0.7585297,0.5910645,1.4737549,1.0986328,2.0800781     c1.4579163,1.8130188,4.2216187,1.6360626,4.9091797-1.875c0.5565491-2.9510498-0.532074-31.21698-0.5250244-31.3325195     c2.785614,0.0692596,5.4844666-0.1667633,8.380127-0.8061523     C272.1508179,174.7681427,273.6594543,196.6076508,273.7478027,197.1083832z M311.6162109,163.4770355     c-1.2211914,2.2763672-8.8452148,1.3183594-20.2889404-2.6938477c3.0582275-3.7915039,5.2877197-8.1816406,6.5447998-12.8901367     C309.4987793,156.5346527,312.6158447,161.6088715,311.6162109,163.4770355z" fill="#000000"/><path d="M99.8359528,157.9838715c0.3376465-0.3203125,0.6739502-0.6401367,1.0141602-0.9628906l-5.598877-5.5932617     c-0.0625,0.012207-0.1210938,0.0219727-0.1838379,0.034668c-0.6262207,0.1196289-0.8653564,0.8935547-0.4150391,1.34375     L99.8359528,157.9838715z" fill="#000000"/><path d="M76.2679596,173.6533051c4.1793213,2.9545898,8.2318115,5.9799805,12.4039307,8.9418945     c0.1971436,0.1337891,0.4715576,0.105957,0.6333008-0.0771484c5.5371094-6.296875,11.2783203-12.1015625,17.2375488-17.8286133     l7.2819824,7.2817383c0.4433594,0.4506836,1.203125,0.2250977,1.336792-0.3935547     c1.5970459-7.4580078,3.3984375-15.1835938,4.4395752-22.9438477c0.0675049-0.4985352-0.3521729-0.9135742-0.8449707-0.887207     c-1.0632324,7.1914063-2.7121582,14.3388672-4.1933594,21.2563477c-0.1337891,0.6191406-0.8935547,0.8442383-1.336792,0.3935547     l-7.2821045-7.2817383c-5.9592285,5.7270508-11.7004395,11.53125-17.2374268,17.828125     c-0.1617432,0.1831055-0.4361572,0.2114258-0.6331787,0.0776367c-4.1723633-2.9619141-8.2248535-5.9873047-12.4040527-8.9423828     c-0.1477051-0.1123047-0.3518066-0.1191406-0.5135498-0.0283203c-5.4604492,3.2285156-11.7464638,6.1699219-17.741703,8.621582     c-0.1068115,0.9257813,0.0808105,2.5219727,0.456665,2.3662109c6.0085449-2.4555664,12.4099159-5.1762695,17.8837929-8.4130859     C75.916275,173.5331879,76.1202545,173.5405121,76.2679596,173.6533051z" fill="#000000"/><path fill="#591757" d="M119.8015213,239.5474396c-0.0299606,1.562851,0.4107666,3.2460175,0.1603241,4.7985992     c-0.2616272,1.6352234-2.2959366,1.9001617-3.9469833,2.4242401h-0.010025     c-13.5737228,3.9588776-27.514679,3.5494843-38.4986877,0.1403809c-1.2022171-0.3707733-2.7649384-0.6109467-3.265831-1.8734436     c-0.3707199-1.0203247-0.0760117-2.0608521,0.2404175-3.1154175c1.1621017-3.8770294,2.3641968-7.783905,4.387825-11.2901611     c0.2805328-0.4911041,0.5811157-0.98172,1.0017853-1.3725586c0.6067734-0.5560303-1.3139496-0.0468903,26.827858-5.5797729     c14.0855103-2.7583313,12.5852661-2.5369415,12.7527161-2.5044556c1.2722931,0.2401733,0.651062,2.8047943,0.6211014,4.0472412     C120.0664215,225.5410156,119.8141785,238.9373932,119.8015213,239.5474396z"/><path fill="#d121bc" d="M309.9714966,122.9552155c-4.1080017,2.8184357-9.8265686-0.1118851-9.8265686-5.1863098    c0-5.9531479,7.554657-8.5486984,11.2182617-3.8841553C313.5910645,116.696434,313.0018616,120.880127,309.9714966,122.9552155z"/><path fill="#591757" d="M237.4792633,181.4702454c-2.5393524-0.1235504-4.6678314-1.7627563-5.5334778-3.9765167    c-1.6127777-4.0965118,1.4104309-8.5775299,5.8499603-8.5775299c3.4483032,0,6.1954803,2.7648163,6.2756195,6.1075745    C244.3858795,178.1650696,241.393692,181.6764069,237.4792633,181.4702454z"/><path fill="#d121bc" d="M225.8786011,125.2865448c-4.1080017,2.8184357-9.8265533-0.1118851-9.8265533-5.1863098    c0-5.9368515,7.5404205-8.5668335,11.218277-3.8841553c0.812149,1.0249786,1.3078156,2.3103104,1.3413849,3.7105026    C228.7835083,121.642395,227.7975922,123.9724884,225.8786011,125.2865448z"/><path fill="#591757" d="M306.4074097,169.1047821c-2.7523499,1.8883362-6.5927734,1.2984009-8.6196289-1.4898224    c-3.029541-4.1024323-0.0631104-9.9777222,5.0771179-9.9777222    C309.0122986,157.6372375,311.5021362,165.6160889,306.4074097,169.1047821z"/></svg>