<svg xmlns="http://www.w3.org/2000/svg" enable-background="new 0 0 2158.765 2000" viewBox="0 0 2158.765 2000"><path fill="#3f1459" d="M1648.597,1561.393c0,0-680.06,360.919-1060.703,249.718    c-180.623-52.767-278.189-231.503-313.818-404.892c-28.939-140.834-35.875-304.116,62.146-419.994    c51.431-60.8,129.286-95.761,176.815-158.678c44.616-59.062,11.85-127.019-25.911-180.458    C370.524,482.073,672.828-7.428,1294.344,198.551s557.665,781.923,567.684,962.086    C1872.048,1340.8,1648.597,1561.393,1648.597,1561.393z"/><path fill="#3f1459" d="M479.654,705.057c-13.734-22.588-29.397-43.347-39.889-67.829    c-10.141-23.663-16.678-49.207-20.072-74.699c-6.81-51.157-2.66-108.405,15.888-156.629c2.686-6.984-8.073-10.983-11.754-4.965    c-25.383,41.495-41.651,86.112-43.099,135.091c-1.457,49.286,9.391,98.321,30.481,142.817    c10.143,21.4,25.449,40.363,34.401,62.276c7.828,19.157,3.57,36.895-10.513,51.887c-17.268,18.383-40.865,28.888-62.201,41.663    c-20.385,12.205-39.693,26.128-58.112,41.122c-147.932,120.417-213.677,317.791-183.194,503.809    c9.077,55.389,26.719,109.034,50.673,159.739c23.33,49.385,53.737,100.963,93.98,138.456    c17.972,16.744,50.997-5.406,35.637-27.456c-27.803-39.914-56.826-77.76-79.111-121.29c-21.403-41.809-37.258-86.277-47.549-132.1    c-19.964-88.902-16.085-181.641,12.951-268.084c27.798-82.759,78.119-157.663,144.811-214.057    c15.978-13.51,33.043-25.662,50.883-36.592c22.054-13.511,45.174-24.93,65.028-41.761c18.089-15.335,33.087-37.004,37.146-60.694    C500.362,750.533,492.718,726.544,479.654,705.057z"/><path fill="#3f1459" d="M1602.165,297.088c-9.151-13.325-21.866-21.172-35.129-30.216    c-13.163-8.977-26.569-17.597-40.198-25.848c-27.318-16.538-55.565-31.464-84.482-45c-15.372-7.196-28.969,15.004-13.524,23.098    c27.59,14.459,54.443,30.239,80.408,47.453c12.681,8.408,25.148,17.134,37.382,26.18c12.942,9.57,24.03,19.935,39.208,25.551    C1597.416,322.593,1609.108,307.199,1602.165,297.088z"/><path fill="#3f1459" d="M358.749,1704.257c-3.727-3.425-8.657-6.014-13.873-5.758c-0.597,0.029-1.194,0.059-1.792,0.088    c-5.163,0.253-10.098,1.996-13.819,5.712c-1.906,1.768-3.254,3.863-4.044,6.284c-1.225,2.328-1.787,4.836-1.688,7.526    c0.223,5.052,1.878,10.294,5.712,13.818l3.952,3.057c3.046,1.77,6.332,2.661,9.858,2.675c0.597,0.03,1.194,0.06,1.791,0.091    c2.702,0.104,5.223-0.458,7.563-1.685c2.433-0.79,4.54-2.141,6.319-4.053c1.915-1.776,3.269-3.88,4.062-6.313    c1.23-2.338,1.796-4.858,1.696-7.56C364.263,1713.062,362.6,1707.797,358.749,1704.257z"/><path fill="#4f4e4e" d="M745.693,926.575c0,0-27.912,5.075-27.912,17.762c0,12.687,55.823,30.449,55.823,30.449   l228.366-43.136c0,0,2.537-12.687-7.612-15.224c-10.149-2.537-137.02,7.612-137.02,7.612L745.693,926.575z"/><path fill="#d67958" d="M1001.971,931.65c-2.537,0-48.211-20.299-48.211-91.346c0-71.048-187.768,10.15-187.768,10.15   s-5.075,55.823-20.299,73.585c-15.224,17.762-27.912,20.299-27.912,20.299s5.075,35.524,45.673,65.973   c40.599,30.449,162.394,17.762,200.455-12.687C1001.971,967.174,1001.971,931.65,1001.971,931.65z"/><path fill="#5a316e" d="M1116.154,954.487c-12.687-5.075-71.047-22.837-96.421-32.986    c-25.374-10.15-45.219-3.911-45.219-3.911l-43.591,31.822c0,0-152.244-43.136-203.175-17.134    c-50.93,26.002-174.898,62.807-225.646,90.719c-50.748,27.911-71.047,76.122-68.51,104.033c2.538,27.911-1.71,61.246-1.71,61.246    l150.149,493.177l-2.312,127.163c2.706,0.86,5.43,1.693,8.175,2.495c234.976,68.646,584.051-42.622,816.813-137.836    l-116.01-655.353C1288.698,1017.922,1128.841,959.562,1116.154,954.487z"/><path fill="#3d57a4" d="M1030.027,939.525c-0.916-8.78-11.613-6.689-11.497,2.537    c0.483,38.645-22.253,68.395-52.763,89.932c-29.848,21.07-64.851,33.85-101.89,34.859c-36.399,0.992-74.36-2.893-104.846-24.466    c-14.382-10.178-26.91-23.401-37.243-37.619c-4.608-6.341-8.915-13.009-12.635-19.912c-5.13-9.523-6.609-18.965-9.878-29.005    c-0.821-2.524-4.779-2.846-5.448,0c-4.09,17.403,6.05,37.386,15.247,51.693c10.492,16.322,23.281,31.045,38.622,42.974    c33.228,25.837,75.127,31.681,116.181,30.808c42.398-0.901,86.954-20.322,120.333-45.642    C1014.278,1012.875,1034.185,979.375,1030.027,939.525z"/><path fill="#6c4e4e" d="M661.917,677.736c0,0-64.137-119.685-45.719-173.177c18.417-53.493,45.247-62.94,45.247-62.94     s-21.571-11.386,9.725-35.355c31.296-23.969,70.932-30.297,70.932-30.297s-2.711-35.41,59.529-47.568     c62.24-12.158,145.275,32.223,153.576,101.143c0,0,36.204-9.022,61.593,46.963c25.389,55.985,11.639,135.331,7.173,149.852     c-4.466,14.522-124.095,66.222-124.095,66.222L661.917,677.736z"/><path fill="#b57555" d="M681.763,668.354c0,0-57.903-16.332-54.51,37.641c3.393,53.973,45.372,79.993,68.53,78.757     c0,0,51.83,130.484,168.291,126.561c125.347-4.221,141.139-176.262,141.139-176.262s44.527-30.224,36.354-85.175     c-8.173-54.952-50.983-23.381-50.983-23.381l-4.925-53.789c0,0-35.427-36.131-42.365-67.925c0,0-130.903,48.396-110.641,10.219     c0,0-134.906,2.265-140.165,23.098c-2.297,9.098,5.895,29.589,0.82,51.953c-5.075,22.364-4.625,71.254-7.319,74.686     C683.295,668.169,681.763,668.354,681.763,668.354z"/><path fill="#6c4e4e" d="M956.502,596.944c-22.813-10.429-50.749-14.098-75.617-11.709     c-12.836,1.233-10.795,19.577,1.685,19.635c22.802,0.108,44.263,2.006,65.865,9.024     C961.116,618.014,969.304,602.797,956.502,596.944z"/><path fill="#6c4e4e" d="M770.698,557.251c-24.643,10.007-45.972,27.497-62.421,48.235     c-8.006,10.094,5.649,20.705,13.91,10.914c15.096-17.892,35.543-29.438,56.604-39.397     C791.113,571.177,783.536,552.037,770.698,557.251z"/><path fill="#4f4e4e" d="M771.639,675.703c-2.029-4.374-5.921-7.585-10.755-8.327c-1.187-0.182-2.341-0.196-3.477-0.094     c-5.254-0.458-10.562,2.182-13.96,6.248c-3.698,4.424-3.877,10.369-1.459,15.188c0.3,0.743,0.661,1.453,1.07,2.132     c0.063,0.106,0.127,0.211,0.193,0.315c0.144,0.226,0.291,0.449,0.446,0.667c0.153,0.217,0.314,0.428,0.478,0.637     c0.084,0.105,0.164,0.214,0.25,0.316c2.428,2.948,5.92,5.047,9.683,5.612c6.688,1.004,14.279-2.823,16.677-9.346     c0.153-0.416,0.266-0.836,0.383-1.256c0.113-0.245,0.244-0.478,0.343-0.732C772.888,683.549,773.271,679.221,771.639,675.703z"/><path fill="#4f4e4e" d="M944.336,651.794c-2.029-4.374-5.921-7.585-10.755-8.327c-1.187-0.182-2.341-0.196-3.477-0.094     c-5.254-0.458-10.562,2.182-13.96,6.248c-3.698,4.424-3.877,10.369-1.458,15.188c0.3,0.743,0.661,1.453,1.069,2.131     c0.063,0.106,0.127,0.211,0.193,0.315c0.144,0.226,0.291,0.449,0.446,0.667c0.153,0.217,0.314,0.428,0.478,0.637     c0.084,0.105,0.164,0.214,0.25,0.317c2.428,2.948,5.92,5.047,9.683,5.612c6.688,1.004,14.279-2.823,16.677-9.347     c0.153-0.416,0.266-0.836,0.383-1.256c0.113-0.245,0.244-0.478,0.343-0.732C945.585,659.64,945.968,655.312,944.336,651.794z"/><path fill="#d87a55" d="M860.363,731.11c-5.855-1.301-13.035-2.109-18.915-1.194c-7.715,1.2-6.174,13.772,1.51,13.422     c5.757-0.262,11.501,0.346,17.224,0.096c3.051-0.133,5.422-3.214,5.418-6.083C865.597,734.138,863.461,731.799,860.363,731.11z"/><path fill="#1f1c1c" d="M805.022,788.686l106.84-15.976c0,0-17.014,39.34-47.092,47.624     C834.692,828.618,805.022,788.686,805.022,788.686z"/><path fill="#d87a55" d="M685.839,740.89c-0.184-1.531-11.66-45.209-11.66-45.209s-7.16,17.954-2.99,26.774     C674.739,729.966,685.839,740.89,685.839,740.89z" opacity=".5"/><path fill="#d87a55" d="M998.411,701.928c-0.245-1.523-1.258-46.672-1.258-46.672     s11.833,15.283,10.258,24.912C1006.068,688.366,998.411,701.928,998.411,701.928z" opacity=".5"/><path fill="#5a316e" d="M433.657,1169.646c0,0,4.217,31.388-19.135,90.501c-23.352,59.113-38.028,133.589-37.209,202.015     c0.819,68.427,15.036,141.445,31.592,156.41c16.555,14.965,39.666,3.265,40.063,11.146c0.397,7.88-9.182,26.797,1.988,39.401     c11.169,12.604,26.821,61.849,40.352,69.066c13.531,7.218,199.161-175.952,199.161-175.952l-53.713-281.697     c0,0-100.44-216.138-118.827-215.21C499.543,1066.253,433.657,1169.646,433.657,1169.646z"/><path fill="#4f4e4e" d="M513.28,1638.196c0,0-12.019,36.284-19.369,47.189c-7.35,10.904-16.399,40.328-2.603,52.799     c13.796,12.471,37.171,6.025,67.234-24.459c30.063-30.484,160.471-55.497,164.134-87.282     c3.663-31.786-35.761-82.465-35.761-82.465L513.28,1638.196z"/><path fill="#3d57a4" d="M626.079,1337.894c-24.382-54.221-68.721-96.971-92.347-151.422     c-3.44-7.93-16.239-3.969-12.956,4.285c22.007,55.336,62.895,99.172,87.741,152.945     C613.431,1354.335,630.988,1348.811,626.079,1337.894z"/><path fill="#3d57a4" d="M571.832,1412.542c-32.874-3.027-64.468,15.77-82.205,42.791     c-9.314,14.191-11.95,28.574-16.768,44.435c-3.065,10.093-11.309,15.603-18.839,22.316c-8.499,7.577-16.698,15.307-24.377,23.722     c-4.316,4.729,1.87,11.97,7.259,8.487c13.855-8.954,27.306-19.135,39.597-30.159c11.796-10.579,12.502-22.97,17.117-37.294     c11.393-35.363,40.912-53.804,76.675-56.035C580.263,1430.183,582.547,1413.53,571.832,1412.542z"/><path fill="#3d57a4" d="M597.344,1332.513c-21.159-20.469-63.35-13.336-89.526-10.964     c-17.394,1.577-35.038,4.561-51.283,11.19c-8.165,3.331-12.52,6.673-21.231,4.644c-1.952-0.455-3.9-0.987-5.848-1.523     c0.597-0.753,0.948-1.768,0.841-3.078c-1.241-15.243,4.595-27.774,8.759-42.028c3.559-12.183,4.777-24.713,4.58-37.373     c-0.435-27.887-5.72-55.209-3.442-83.193c0.26-3.198-4.77-3.391-5.479-0.462c-6.546,27.037-0.43,54.444-0.018,81.796     c0.228,15.177-2.088,29.322-6.984,43.645c-4.268,12.487-8.66,24.74-6.57,38.075c0.011,0.074,0.039,0.136,0.053,0.208     c-5.156-1.591-10.297-3.257-15.414-4.729c-3.549-1.021-5.78,4.87-2.241,6.167c11.358,4.164,26.751,13.216,38.935,12.96     c7.191-0.151,14.645-5.537,21.345-7.852c9.129-3.155,18.614-5.163,28.162-6.525c16.735-2.386,33.741-3.151,50.625-3.619     c18.447-0.51,33.031,2.167,49.668,9.959C596.883,1341.97,601.05,1336.099,597.344,1332.513z"/><path fill="#3d57a4" d="M639.921,1288.799c-8.404-21.7-20.077-41.388-34.372-59.731     c-4.624-5.934-14.479,0.296-9.906,6.481c13.123,17.746,24.042,36.87,33.39,56.852     C632.07,1298.893,642.648,1295.844,639.921,1288.799z"/><path fill="#3d57a4" d="M569.213,1214.707c-12.208-25.061-22.751-50.888-31.631-77.312     c-4.12-12.258-7.857-24.642-11.205-37.133c-3.524-13.145-5.433-27.142-10.034-39.916c-1.761-4.89-9.441-3.688-9.128,1.708     c1.565,26.901,12.513,55.59,21.275,80.902c9.134,26.387,20.297,51.975,32.83,76.915     C564.052,1225.309,571.832,1220.084,569.213,1214.707z" opacity=".5"/><path fill="#b57555" d="M493.911,1685.385c0,0,31.364-56.884,35.004-141.336c3.64-84.452,17.28-127.275,40.896-181.134      c23.617-53.859,152.628-263.14,163.377-311.083c10.748-47.943,10.592-103.237,7.303-116.238      c-3.289-13.001,24.279-40.726,22.689-72.246s-10.367-70.238,7.888-73.792c18.254-3.555,39.635,23.993,40.96,50.26      c1.325,26.267-7.591,58.318,0.289,57.92c7.88-0.398,97.695-47.063,146.675-67.968c48.98-20.905,82.862-27.881,91.14-20.399      c8.278,7.483,4.084,28.761-1.037,31.653c-0.113,0.064-0.227,0.125-0.342,0.184c-38.057,19.55-80.855,34.176-115.657,59.04      c4.846,3.328,9.711,6.5,13.282,11.321c4.062,5.483,6.446,13.923,4.735,20.607c-1.556,6.078-6.837,9.637-0.668,15.213      c8.277,7.482,16.552,14.964,14.588,28.228c-0.737,4.98-4.181,8.017-5.397,12.741c-1.083,4.207-0.536,8.876,0.494,13.034      c1.735,7.011,4.774,13.976,3.971,21.154c-1.04,9.296-8.208,16.584-15.153,22.851c-11.727,10.582-23.208,21.082-36.895,28.811      c-13.137,7.418-26.401,15.119-38.244,24.514c-17.724,14.061-30.593,19.977-37.678,36.135      c-7.085,16.158-35.557,78.162-47.607,152.505c-12.05,74.343-41.932,212.787-59.501,282.142      c-17.568,69.355-86.213,170.254-119.697,185.11C575.839,1769.47,529.594,1740.203,493.911,1685.385z"/><path fill="#d67958" d="M980.691,816.452c-14.68,1.214-29.372,8.132-43.041,13.32      c-14.237,5.403-28.267,11.363-42.146,17.623c-25.956,11.708-51.274,24.746-75.895,39.032      c5.367-34.712,5.284-85.389-32.435-100.544c-14.448-5.805-29.63,1.65-31.877,17.389c-1.371,9.604,1.676,19.302,3.18,28.706      c2.178,13.616,0.575,26.963,1.553,40.581c0.308,4.286,5.715,4.835,7.242,0.98c5.363-13.535,4.347-28.921,2.995-43.158      c-0.626-6.597-1.94-13.273-1.935-19.917c0.013-15.657,14.064-12.567,21.892-5.133c23.761,22.563,17.177,57.869,14.433,86.78      c-0.115,1.214,0.134,2.263,0.594,3.172c-2.346,0.835-4.568,2.274-6.569,3.54c-3.309,2.095-6.223,4.424-8.935,7.247      c-4.337,4.513,1.788,10.997,6.875,8.038c2.907-1.691,5.768-3.486,8.705-5.129c2.295-1.284,4.858-2.32,6.869-4.023      c1.203,0.101,2.502-0.16,3.828-0.95c26.553-15.814,53.784-30.448,81.818-43.468c14.215-6.603,28.63-12.75,43.142-18.666      c13.652-5.566,29.449-9.422,41.882-17.385C986.204,822.35,985.213,816.078,980.691,816.452z"/><path fill="#d67958" d="M930.924,898.664c-10.705,4.253-27.127,10.769-36.252,17.672      c-6.082,4.602-0.053,14.14,6.549,10.009c9.29-5.815,28.887-18.159,37.315-25.143      C943.632,896.977,938.234,895.759,930.924,898.664z"/><g><path fill="#b57555" d="M1902.625,1411.003c0,0,30.52,94.714,84.119,83.425c53.599-11.289,54.727-54.411,38.762-123.362    c-15.964-68.951-60.216-263.548-67.449-305.353c-7.233-41.805-121.724-128.563-121.724-128.563l-91.402,292.049l51.971,245.033    L1902.625,1411.003z"/><path fill="#b57555" d="M1844.443,724.148c0,0,50.863-3.746,78.234,17.276c27.371,21.022,46.522,68.413,49.844,133.894    c3.322,65.482-31.246,125.496-31.246,125.496l-144.782,3.828L1844.443,724.148z"/><path fill="#b57555" d="M1512.928,457.722c0,0-7.764-57.195,15.795-84.499c23.559-27.305,73.024-36.389,108.066-36.629    c35.042-0.24,71.298,69.242,71.298,69.242l-24.971,80.232L1512.928,457.722z"/><path fill="#b57555" d="M1152.729,871.042c-6.232-8.206-23.308-13.047-32.487-15.515    c-23.323-6.272-57.477-5.401-75.608,12.278c-8.956,8.733-15.666,19.127-20.247,30.766c-5.183,13.167-7.684,27.246-9.107,41.325    c-0.736,7.279-1.189,14.66-0.04,21.886c1.211,7.615,4.164,14.835,7.308,21.876c3.308,7.409,6.896,14.783,11.962,21.12    c3.458,4.325,7.573,8.126,10.68,12.71c3.926,5.792,6.016,12.52,9.222,18.69c3.279,6.312,8.002,11.087,13.082,15.983    c10.248,9.877,21.479,18.716,33.247,26.708c12.79,8.687,26.293,16.701,40.464,23.063l27.908-209.318    C1169.112,892.614,1152.734,871.049,1152.729,871.042z"/><path fill="#7498b5" d="M1194.971,579.619c1.246-17.898-26.153-18.405-27.743-0.726     c-1.817,20.202-3.635,40.403-5.452,60.604c-1.688,18.767-6.977,40.853-2.963,59.37c2.984,13.769,21.291,12.277,25.816,0.675     c6.795-17.42,4.831-40.747,6.121-59.288C1192.158,620.044,1193.564,599.832,1194.971,579.619z"/><path fill="#7498b5" d="M1155.479,731.66c-5.395,34.075-10.7,68.736-11.45,103.276     c-0.422,19.426,27.833,19.657,29.824,0.78c3.632-34.422,5.443-68.95,9.786-103.32     C1185.936,714.214,1158.249,714.166,1155.479,731.66z"/><path fill="#7498b5" d="M1481.448,431.819c-50.339-10.443-102.455-12.54-153.618-15.802     c-21.955-1.399-22.703,32.437-0.891,34.085c49.833,3.766,98.963,13.097,148.625,18.022     C1496.149,470.166,1502.003,436.084,1481.448,431.819z"/><path fill="#cb12e8" d="M1874.277,579.011l-116.876,1220.941c-5.366,56.056-55.592,96.86-111.558,90.633l-485.854-54.063     c-54.568-6.072-94.255-54.676-89.295-109.356l110.286-1215.797c5.063-55.813,54.653-96.796,110.421-91.257l492.444,48.919     C1839.135,474.524,1879.571,523.7,1874.277,579.011z"/><path fill="#4f4e4e" d="M1861.963,589.266l-114.77,1198.942c-5.269,55.045-49.517,95.247-104.475,89.132l-477.1-53.089     c-53.585-5.963-87.484-53.558-82.613-107.252l108.298-1193.89c4.972-54.807,48.595-95.185,103.358-89.745l483.571,48.038     C1832.528,486.794,1867.162,534.951,1861.963,589.266z"/><path fill="#1f1c1c" d="M1842.068,610.836L1731.697,1763.83c-5.067,52.936-47.619,91.597-100.471,85.716l-448.882-50.795     c-51.531-5.734-84.131-51.505-79.447-103.142l104.148-1148.135c4.781-52.707,46.733-91.537,99.397-86.306l455.105,45.937     C1813.761,512.292,1847.068,558.603,1842.068,610.836z"/><path fill="#b57555" d="M1145.185,868.307c0,0-2.736,7.543,6.482,43.32s4.809,76.807-2.993,99.181    c-7.802,22.374-21.546,62.627-21.546,62.627l-43.734-74.754l46.505-128.235L1145.185,868.307z"/><path fill="#b57555" d="M1860.555,884.48c-0.067,2.536-17.342,80.771-20.41,100.997     c-3.067,20.226-32.684,103.002-42.057,161.243c-9.373,58.241,2.381,94.084,17.202,109.702     c14.821,15.617,70.691,14.54,89.044-7.824s39.094-136.044,52.772-173.76c13.678-37.716,24.156-50.134,24.886-78.036     c0.73-27.902-8.967-142.378-18.45-168.008C1954.06,803.163,1860.555,884.48,1860.555,884.48z"/><path fill="#b57555" d="M1806.701,1390.726c0,0-35.231,85.38-28.948,136.309c6.283,50.93,41.794,51.859,67.093,55.059     c25.299,3.2,46.255-21.634,49.72-57.08c3.465-35.445,10.065-93.653,21.67-149.191c11.606-55.538-31.316-64.276-31.316-64.276     L1806.701,1390.726z"/><path fill="#d67958" d="M1872.328,887.056c-0.347-12.043-20.778-20.465-24.323-7.981     c-5.766,20.305-5.621,52.518-9.534,73.361c-3.738,19.906-5.58,40.531-6.666,60.744c-0.302,5.62,3.924,2.228,6.838-2.176     c11.356-17.166,16.604-40.164,21.819-59.908C1865.728,931.162,1872.924,907.738,1872.328,887.056z"/><path fill="#d67958" d="M1805.093,1355.149c-6.371,17.714-8.738,42.922-11.871,65.684c-0.88,6.389,2.01,11.172,4.94,5.206     c8.664-17.642,21.586-37.578,25.059-57.328C1825.16,1357.684,1809.051,1344.141,1805.093,1355.149z"/><path fill="#d67958" d="M1959.214,1089.636c0.939-7.157-9.811-8.163-12.024-1.949     c-14.334,40.257-22.167,82.13-34.88,122.828c-5.387,17.242-13.227,34.517-30.159,43.064c-19.644,9.916-38.952,3.57-55.44-8.838     c-10.626-7.998-23.613,8.591-14.524,17.84c31.753,32.314,82.97,21.636,106.784-13.115c0.135,20.347-0.461,40.636-2.744,61.083     c-3.764,33.71-11.727,66.969-14.57,100.751c-0.726,8.638,12.033,10.157,14.643,2.373     c21.316-63.603,29.341-136.008,24.447-202.763c-0.247-3.361-1.682-5.962-3.688-7.828c2.358-9.793,4.316-19.69,6.467-29.365     C1949.729,1145.803,1955.495,1117.989,1959.214,1089.636z"/><g><path fill="#b57555" d="M1547.356,437.167c0,0,46.355,1.412,70.974,17.186c24.619,15.774,67.806,14.365,90.767,9.889     c22.961-4.476,64.342-33.853,62.735-69.431c-1.608-35.578-51.808-57.197-112.685-58.789     c-60.877-1.592-114.675,17.307-122.749,34.863C1528.325,388.442,1547.356,437.167,1547.356,437.167z"/><path fill="#d67958" d="M1614.073,443.361c-11.43-7.036-24.935-11.896-38.552-11.349     c-10.335,0.415-10.565,14.743-0.417,15.933c11.614,1.362,26.854,1.786,37.804,6.167     C1620.069,456.977,1620.406,447.259,1614.073,443.361z"/></g></g></svg>